
<svg xmlns="http://www.w3.org/2000/svg" version="1.1" xmlns:xlink="http://www.w3.org/1999/xlink" preserveAspectRatio="none" x="0px" y="0px" width="640px" height="1138px" viewBox="0 0 640 1138">
<defs>
<radialGradient id="Gradient_1" gradientUnits="userSpaceOnUse" cx="0" cy="0" r="423.75" fx="0" fy="0" gradientTransform="matrix( 1, 0, 0, 1, -68,-136) " spreadMethod="pad">
<stop  offset="7.450980392156863%" stop-color="#999999"/>

<stop  offset="17.647058823529413%" stop-color="#7C7C7C"/>

<stop  offset="46.666666666666664%" stop-color="#444444"/>
</radialGradient>

<filter id="Filter_1" x="-20%" y="-20%" width="140%" height="140%" color-interpolation-filters="sRGB">
<feColorMatrix in="SourceGraphic" type="matrix" values="0 0 0 0 255 0 0 0 0 255 0 0 0 0 255 0 0 0 255 0" result="result1"/>

<feComposite in2="result1" in="BackgroundImage" operator="in" result="result2"/>

<feBlend mode="multiply" in2="result2" in="SourceGraphic" result="result3"/>
</filter>

<filter id="Filter_2" x="-20%" y="-20%" width="140%" height="140%" color-interpolation-filters="sRGB">
<feColorMatrix in="SourceGraphic" type="matrix" values="0 0 0 0 255 0 0 0 0 255 0 0 0 0 255 0 0 0 255 0" result="result1"/>

<feComposite in2="result1" in="BackgroundImage" operator="in" result="result2"/>

<feBlend mode="multiply" in2="result2" in="SourceGraphic" result="result3"/>
</filter>

<filter id="Filter_3" x="-20%" y="-20%" width="140%" height="140%" color-interpolation-filters="sRGB">
<feColorMatrix in="SourceGraphic" type="matrix" values="0 0 0 0 255 0 0 0 0 255 0 0 0 0 255 0 0 0 255 0" result="result1"/>

<feComposite in2="result1" in="BackgroundImage" operator="in" result="result2"/>

<feBlend mode="multiply" in2="result2" in="SourceGraphic" result="result3"/>
</filter>

<filter id="Filter_4" x="-20%" y="-20%" width="140%" height="140%" color-interpolation-filters="sRGB">
<feColorMatrix in="SourceGraphic" type="matrix" values="0 0 0 0 255 0 0 0 0 255 0 0 0 0 255 0 0 0 255 0" result="result1"/>

<feComposite in2="result1" in="BackgroundImage" operator="in" result="result2"/>

<feBlend mode="multiply" in2="result2" in="SourceGraphic" result="result3"/>
</filter>

<filter id="Filter_5" x="-20%" y="-20%" width="140%" height="140%" color-interpolation-filters="sRGB">
<feColorMatrix in="SourceGraphic" type="matrix" values="0 0 0 0 255 0 0 0 0 255 0 0 0 0 255 0 0 0 255 0" result="result1"/>

<feComposite in2="result1" in="BackgroundImage" operator="in" result="result2"/>

<feBlend mode="multiply" in2="result2" in="SourceGraphic" result="result3"/>
</filter>

<filter id="Filter_6" x="-20%" y="-20%" width="140%" height="140%" color-interpolation-filters="sRGB">
<feColorMatrix in="SourceGraphic" type="matrix" values="0 0 0 0 255 0 0 0 0 255 0 0 0 0 255 0 0 0 255 0" result="result1"/>

<feComposite in2="result1" in="BackgroundImage" operator="in" result="result2"/>

<feBlend mode="multiply" in2="result2" in="SourceGraphic" result="result3"/>
</filter>

<filter id="Filter_7" x="-20%" y="-20%" width="140%" height="140%" color-interpolation-filters="sRGB">
<feColorMatrix in="SourceGraphic" type="matrix" values="0 0 0 0 255 0 0 0 0 255 0 0 0 0 255 0 0 0 255 0" result="result1"/>

<feComposite in2="result1" in="BackgroundImage" operator="in" result="result2"/>

<feBlend mode="multiply" in2="result2" in="SourceGraphic" result="result3"/>
</filter>

<filter id="Filter_8" x="-20%" y="-20%" width="140%" height="140%" color-interpolation-filters="sRGB">
<feColorMatrix in="SourceGraphic" type="matrix" values="0 0 0 0 255 0 0 0 0 255 0 0 0 0 255 0 0 0 255 0" result="result1"/>

<feComposite in2="result1" in="BackgroundImage" operator="in" result="result2"/>

<feBlend mode="multiply" in2="result2" in="SourceGraphic" result="result3"/>
</filter>

<filter id="Filter_9" x="-20%" y="-20%" width="140%" height="140%" color-interpolation-filters="sRGB">
<feColorMatrix in="SourceGraphic" type="matrix" values="0.92 0 0 0 0.0784313725490196 0 0.92 0 0 0.0784313725490196 0 0 0.92 0 0.0784313725490196 0 0 0 1 0" result="result1"/>
</filter>

<filter id="Filter_10" x="-20%" y="-20%" width="140%" height="140%" color-interpolation-filters="sRGB">
<feColorMatrix in="SourceGraphic" type="matrix" values="0 0 0 0 255 0 0 0 0 255 0 0 0 0 255 0 0 0 255 0" result="result1"/>

<feComposite in2="result1" in="BackgroundImage" operator="in" result="result2"/>

<feBlend mode="multiply" in2="result2" in="SourceGraphic" result="result3"/>
</filter>

<filter id="Filter_11" x="-20%" y="-20%" width="140%" height="140%" color-interpolation-filters="sRGB">
<feColorMatrix in="SourceGraphic" type="matrix" values="0 0 0 0 255 0 0 0 0 255 0 0 0 0 255 0 0 0 255 0" result="result1"/>

<feComposite in2="result1" in="BackgroundImage" operator="in" result="result2"/>

<feBlend mode="multiply" in2="result2" in="SourceGraphic" result="result3"/>
</filter>

<filter id="Filter_12" x="-20%" y="-20%" width="140%" height="140%" color-interpolation-filters="sRGB">
<feColorMatrix in="SourceGraphic" type="matrix" values="0 0 0 0 255 0 0 0 0 255 0 0 0 0 255 0 0 0 255 0" result="result1"/>

<feComposite in2="result1" in="BackgroundImage" operator="in" result="result2"/>

<feBlend mode="multiply" in2="result2" in="SourceGraphic" result="result3"/>
</filter>

<filter id="Filter_13" x="-20%" y="-20%" width="140%" height="140%" color-interpolation-filters="sRGB">
<feColorMatrix in="SourceGraphic" type="matrix" values="0 0 0 0 255 0 0 0 0 255 0 0 0 0 255 0 0 0 255 0" result="result1"/>

<feComposite in2="result1" in="BackgroundImage" operator="in" result="result2"/>

<feBlend mode="multiply" in2="result2" in="SourceGraphic" result="result3"/>
</filter>

<filter id="Filter_14" x="-20%" y="-20%" width="140%" height="140%" color-interpolation-filters="sRGB">
<feColorMatrix in="SourceGraphic" type="matrix" values="0 0 0 0 255 0 0 0 0 255 0 0 0 0 255 0 0 0 255 0" result="result1"/>

<feComposite in2="result1" in="BackgroundImage" operator="in" result="result2"/>

<feBlend mode="multiply" in2="result2" in="SourceGraphic" result="result3"/>
</filter>

<filter id="Filter_15" x="-20%" y="-20%" width="140%" height="140%" color-interpolation-filters="sRGB">
<feColorMatrix in="SourceGraphic" type="matrix" values="0 0 0 0 255 0 0 0 0 255 0 0 0 0 255 0 0 0 255 0" result="result1"/>

<feComposite in2="result1" in="BackgroundImage" operator="in" result="result2"/>

<feBlend mode="multiply" in2="result2" in="SourceGraphic" result="result3"/>
</filter>

<filter id="Filter_16" x="-20%" y="-20%" width="140%" height="140%" color-interpolation-filters="sRGB">
<feColorMatrix in="SourceGraphic" type="matrix" values="0 0 0 0 255 0 0 0 0 255 0 0 0 0 255 0 0 0 255 0" result="result1"/>

<feComposite in2="result1" in="BackgroundImage" operator="in" result="result2"/>

<feBlend mode="multiply" in2="result2" in="SourceGraphic" result="result3"/>
</filter>

<filter id="Filter_17" x="-20%" y="-20%" width="140%" height="140%" color-interpolation-filters="sRGB">
<feColorMatrix in="SourceGraphic" type="matrix" values="0 0 0 0 255 0 0 0 0 255 0 0 0 0 255 0 0 0 255 0" result="result1"/>

<feComposite in2="result1" in="BackgroundImage" operator="in" result="result2"/>

<feBlend mode="multiply" in2="result2" in="SourceGraphic" result="result3"/>
</filter>

<g id="Mask_12_MASK_0_FILL">
<path fill="#FFFFFF" stroke="none" d="
M 640 0
L 0 0 0 1138 640 1138 640 0 Z"/>
</g>

<g id="Layer12_0_FILL">
<path fill="#3B3809" stroke="none" d="
M 640 0
L 0 0 0 1138 640 1138 640 0 Z"/>
</g>

<g id="Tween_83_0_Layer0_0_MEMBER_0_FILL">
<path fill="#1E1B1B" stroke="none" d="
M 1133.3 611.95
L 1133.3 367.05 928.35 367.05 928.35 611.95 1133.3 611.95 Z"/>
</g>

<g id="FlashAICB_Assets_Layer_1__Group__1_0_Layer0_0_MEMBER_0_FILL">
<path fill="#787676" stroke="none" d="
M 36.9 6.35
Q 30.55 0 21.6 0 12.7 0 6.35 6.35 0 12.7 0 21.6
L 0 89.8 43.2 89.8 43.2 21.6
Q 43.2 12.65 36.9 6.35 Z"/>
</g>

<g id="FlashAICB_Assets_Layer_1__Group__1_0_Layer0_0_MEMBER_1_FILL">
<path fill="#787676" stroke="none" d="
M 107.55 21.6
Q 107.55 12.65 101.25 6.35 94.9 0 85.95 0 77.05 0 70.7 6.35 64.35 12.7 64.35 21.6
L 64.35 89.8 107.55 89.8 107.55 21.6 Z"/>
</g>

<g id="FlashAICB_Assets_Layer_1__Group__1_0_Layer0_0_MEMBER_2_FILL">
<path fill="#787676" stroke="none" d="
M 171.95 21.6
Q 171.95 12.7 165.6 6.35 159.3 0 150.35 0 141.4 0 135.05 6.35 128.75 12.65 128.75 21.6
L 128.75 89.8 171.95 89.8 171.95 21.6 Z"/>
</g>

<g id="FlashAICB_Assets_Layer_1__Group__0_Layer0_0_MEMBER_0_FILL">
<path fill="#787676" stroke="none" d="
M 36.9 6.3
Q 30.55 0 21.6 0 12.65 0 6.35 6.3 0 12.65 0 21.6
L 0 81.9 43.2 81.9 43.2 21.6
Q 43.2 12.65 36.9 6.3 Z"/>
</g>

<g id="FlashAICB_Assets_Layer_1__Group__0_Layer0_0_MEMBER_1_FILL">
<path fill="#787676" stroke="none" d="
M 107.55 21.6
Q 107.55 12.65 101.25 6.3 94.9 0 85.95 0 77 0 70.7 6.3 64.35 12.65 64.35 21.6
L 64.35 81.9 107.55 81.9 107.55 21.6 Z"/>
</g>

<g id="FlashAICB_Assets_Layer_1__Group__0_Layer0_0_MEMBER_2_FILL">
<path fill="#787676" stroke="none" d="
M 171.95 21.6
Q 171.95 12.65 165.6 6.3 159.3 0 150.35 0 141.4 0 135.05 6.3 128.75 12.65 128.75 21.6
L 128.75 81.9 171.95 81.9 171.95 21.6 Z"/>
</g>

<g id="Tween_83_0_Layer0_0_MEMBER_3_FILL">
<path fill="#151212" stroke="none" d="
M 1133.3 360.55
L 1120 295.55 941.65 295.55 928.35 360.55 1133.3 360.55 Z"/>
</g>

<g id="Tween_83_0_Layer0_0_MEMBER_4_FILL">
<path fill="#050303" stroke="none" d="
M 1133.3 377.05
L 1133.3 360.55 928.35 360.55 928.35 377.05 1133.3 377.05 Z"/>
</g>

<g id="FlashAICB_Assets_Layer_1__Path__0_Layer0_0_FILL">
<path fill="#787676" stroke="none" d="
M 17.9 31.8
L 17.9 8.95
Q 17.9 5.25 15.3 2.6 12.65 0 8.95 0 5.25 0 2.6 2.6 0 5.25 0 8.95
L 0 31.8 17.9 31.8 Z"/>
</g>

<g id="Tween_83_0_Layer0_1_MEMBER_0_FILL">
<path fill="#151212" stroke="none" d="
M 928.5 376.35
L 698.85 376.35 698.85 611.95 928.5 611.95 928.5 376.35 Z"/>
</g>

<g id="FlashAICB_Assets_Layer_1__Path__7_0_Layer0_0_FILL">
<path fill="#787676" stroke="none" d="
M 36.85 6.3
Q 30.55 0 21.6 0 12.65 0 6.3 6.3 0 12.65 0 21.6
L 0 56.55 43.2 56.55 43.2 21.6
Q 43.2 12.65 36.85 6.3 Z"/>
</g>

<g id="FlashAICB_Assets_Layer_1__Path__6_0_Layer0_0_FILL">
<path fill="#787676" stroke="none" d="
M 36.85 6.3
Q 30.55 0 21.6 0 12.65 0 6.3 6.3 0 12.65 0 21.6
L 0 56.55 43.2 56.55 43.2 21.6
Q 43.2 12.65 36.85 6.3 Z"/>
</g>

<g id="FlashAICB_Assets_Layer_1__Path__5_0_Layer0_0_FILL">
<path fill="#787676" stroke="none" d="
M 36.9 6.3
Q 30.55 0 21.6 0 12.65 0 6.3 6.3 0 12.65 0 21.6
L 0 56.55 43.2 56.55 43.2 21.6
Q 43.2 12.65 36.9 6.3 Z"/>
</g>

<g id="FlashAICB_Assets_Layer_1__Path__4_0_Layer0_0_FILL">
<path fill="#787676" stroke="none" d="
M 39 0
L 0 0 0 67.25 39 67.25 39 0 Z"/>
</g>

<g id="FlashAICB_Assets_Layer_1__Path__3_0_Layer0_0_FILL">
<path fill="#787676" stroke="none" d="
M 38.95 0
L 0 0 0 67.25 38.95 67.25 38.95 0 Z"/>
</g>

<g id="FlashAICB_Assets_Layer_1__Path__2_0_0_Layer0_0_FILL">
<path fill="#787676" stroke="none" d="
M 39 0
L 0 0 0 67.25 39 67.25 39 0 Z"/>
</g>

<g id="Tween_83_0_Layer0_1_MEMBER_7_FILL">
<path fill="#000000" stroke="none" d="
M 718.85 294.85
L 698.85 359.85 928.5 359.85 908.5 294.85 718.85 294.85 Z"/>
</g>

<g id="Tween_83_0_Layer0_1_MEMBER_8_FILL">
<path fill="#050303" stroke="none" d="
M 698.85 359.85
L 698.85 376.35 928.5 376.35 928.5 359.85 698.85 359.85 Z"/>
</g>

<g id="Tween_83_0_Layer0_2_MEMBER_0_FILL">
<path fill="#0F0D0D" stroke="none" d="
M 257 508
L 257 611.95 448.6 611.95 448.6 508 257 508 Z"/>
</g>

<g id="FlashAICB_Assets_Layer_1__Path__1_0_Layer0_0_FILL">
<path fill="#7C7A7A" stroke="none" d="
M 158.55 80.05
L 158.55 0 0 0 0 80.05 158.55 80.05 Z"/>
</g>

<g id="Tween_83_0_Layer0_2_MEMBER_2_FILL">
<path fill="#000000" stroke="none" d="
M 249.1 464.8
L 240.9 512.25 464.7 512.25 458.45 464.8 249.1 464.8 Z"/>
</g>

<g id="Tween_83_0_Layer0_3_MEMBER_0_FILL">
<path fill="#000000" stroke="none" d="
M 456.05 563.25
L 445.9 563.25 443.45 621.95 458.45 621.95 456.05 563.25 Z"/>
</g>

<g id="Tween_83_0_Layer0_3_MEMBER_1_FILL">
<path fill="#0D0B0B" stroke="none" d="
M 476.3 506.75
Q 465.8 496.25 450.95 496.25 436.15 496.25 425.65 506.75 415.2 517.2 415.2 532.05 415.2 546.85 425.65 557.35 436.15 567.8 450.95 567.8 465.8 567.8 476.3 557.35 486.75 546.85 486.75 532.05 486.75 517.2 476.3 506.75 Z"/>
</g>

<g id="Tween_83_0_Layer0_4_MEMBER_0_FILL">
<path fill="#000000" stroke="none" d="
M 693.95 563.25
L 683.8 563.25 681.4 621.95 696.4 621.95 693.95 563.25 Z"/>
</g>

<g id="Tween_83_0_Layer0_4_MEMBER_1_FILL">
<path fill="#0D0B0B" stroke="none" d="
M 724.65 532.05
Q 724.65 517.2 714.2 506.75 703.7 496.25 688.9 496.25 674.05 496.25 663.6 506.75 653.1 517.2 653.1 532.05 653.1 546.85 663.6 557.35 674.05 567.8 688.9 567.8 703.7 567.8 714.2 557.35 724.65 546.85 724.65 532.05 Z"/>
</g>

<g id="Tween_83_0_Layer0_5_MEMBER_0_FILL">
<path fill="#000000" stroke="none" d="
M 908.55 553.25
L 898.4 553.25 896 611.95 911 611.95 908.55 553.25 Z"/>
</g>

<g id="Tween_83_0_Layer0_5_MEMBER_1_FILL">
<path fill="#0D0B0B" stroke="none" d="
M 878.2 496.75
Q 867.7 507.2 867.7 522.05 867.7 536.85 878.2 547.35 888.65 557.8 903.5 557.8 918.3 557.8 928.8 547.35 939.25 536.85 939.25 522.05 939.25 507.2 928.8 496.75 918.3 486.25 903.5 486.25 888.65 486.25 878.2 496.75 Z"/>
</g>

<g id="Tween_83_0_Layer0_6_MEMBER_0_MEMBER_0_FILL">
<path fill="#121010" stroke="none" d="
M 217.65 390.55
L 0 390.55 0 611.95 217.65 611.95 217.65 390.55 Z"/>
</g>

<g id="FlashAICB_Assets_Layer_1__Group__0_0_Layer0_0_MEMBER_0_FILL">
<path fill="#787676" stroke="none" d="
M 36.85 6.35
Q 30.55 0 21.6 0 12.65 0 6.3 6.35 0 12.65 0 21.6
L 0 96.2 43.2 96.2 43.2 21.6
Q 43.2 12.7 36.85 6.35 Z"/>
</g>

<g id="FlashAICB_Assets_Layer_1__Group__0_0_Layer0_0_MEMBER_1_FILL">
<path fill="#787676" stroke="none" d="
M 107.55 21.6
Q 107.55 12.7 101.2 6.35 94.9 0 85.95 0 77 0 70.65 6.35 64.35 12.65 64.35 21.6
L 64.35 96.2 107.55 96.2 107.55 21.6 Z"/>
</g>

<g id="FlashAICB_Assets_Layer_1__Group__0_0_Layer0_0_MEMBER_2_FILL">
<path fill="#787676" stroke="none" d="
M 171.9 21.6
Q 171.9 12.65 165.6 6.35 159.25 0 150.3 0 141.35 0 135 6.35 128.7 12.65 128.7 21.6
L 128.7 96.2 171.9 96.2 171.9 21.6 Z"/>
</g>

<g id="Tween_83_0_Layer0_6_MEMBER_1_FILL">
<path fill="#151212" stroke="none" d="
M 0 325.55
L 0 390.55 217.65 390.55 217.65 325.55 0 325.55 Z"/>
</g>

<g id="Tween_83_0_Layer0_6_MEMBER_2_FILL">
<path fill="#050303" stroke="none" d="
M 71.55 407.05
L 71.55 390.55 -146.1 390.55 -146.1 407.05 71.55 407.05 Z"/>
</g>

<g id="Tween_83_0_Layer0_7_FILL">
<path fill="#070505" stroke="none" d="
M 1137.8 618.3
L 1137.8 610.45 1.8 610.45 1.8 618.3 1137.8 618.3 Z"/>
</g>

<g id="Symbol_42_0_Layer0_0_MEMBER_0_FILL">
<path fill="#1E1B1B" stroke="none" d="
M 1133.3 611.95
L 1133.3 367.05 928.35 367.05 928.35 611.95 1133.3 611.95 Z"/>
</g>

<g id="Symbol_42_0_Layer0_0_MEMBER_3_FILL">
<path fill="#151212" stroke="none" d="
M 1133.3 360.55
L 1120 295.55 941.65 295.55 928.35 360.55 1133.3 360.55 Z"/>
</g>

<g id="Symbol_42_0_Layer0_0_MEMBER_4_FILL">
<path fill="#050303" stroke="none" d="
M 1133.3 377.05
L 1133.3 360.55 928.35 360.55 928.35 377.05 1133.3 377.05 Z"/>
</g>

<g id="Symbol_42_0_Layer0_1_MEMBER_0_FILL">
<path fill="#151212" stroke="none" d="
M 928.5 376.35
L 698.85 376.35 698.85 611.95 928.5 611.95 928.5 376.35 Z"/>
</g>

<g id="Symbol_42_0_Layer0_1_MEMBER_7_FILL">
<path fill="#000000" stroke="none" d="
M 718.85 294.85
L 698.85 359.85 928.5 359.85 908.5 294.85 718.85 294.85 Z"/>
</g>

<g id="Symbol_42_0_Layer0_1_MEMBER_8_FILL">
<path fill="#050303" stroke="none" d="
M 698.85 359.85
L 698.85 376.35 928.5 376.35 928.5 359.85 698.85 359.85 Z"/>
</g>

<g id="Symbol_42_0_Layer0_2_MEMBER_0_FILL">
<path fill="#0F0D0D" stroke="none" d="
M 257 508
L 257 611.95 448.6 611.95 448.6 508 257 508 Z"/>
</g>

<g id="Symbol_42_0_Layer0_2_MEMBER_2_FILL">
<path fill="#000000" stroke="none" d="
M 249.1 464.8
L 240.9 512.25 464.7 512.25 458.45 464.8 249.1 464.8 Z"/>
</g>

<g id="Symbol_42_0_Layer0_3_MEMBER_0_FILL">
<path fill="#000000" stroke="none" d="
M 456.05 563.25
L 445.9 563.25 443.45 621.95 458.45 621.95 456.05 563.25 Z"/>
</g>

<g id="Symbol_42_0_Layer0_3_MEMBER_1_FILL">
<path fill="#0D0B0B" stroke="none" d="
M 476.3 506.75
Q 465.8 496.25 450.95 496.25 436.15 496.25 425.65 506.75 415.2 517.2 415.2 532.05 415.2 546.85 425.65 557.35 436.15 567.8 450.95 567.8 465.8 567.8 476.3 557.35 486.75 546.85 486.75 532.05 486.75 517.2 476.3 506.75 Z"/>
</g>

<g id="Symbol_42_0_Layer0_4_MEMBER_0_FILL">
<path fill="#000000" stroke="none" d="
M 693.95 563.25
L 683.8 563.25 681.4 621.95 696.4 621.95 693.95 563.25 Z"/>
</g>

<g id="Symbol_42_0_Layer0_4_MEMBER_1_FILL">
<path fill="#0D0B0B" stroke="none" d="
M 724.65 532.05
Q 724.65 517.2 714.2 506.75 703.7 496.25 688.9 496.25 674.05 496.25 663.6 506.75 653.1 517.2 653.1 532.05 653.1 546.85 663.6 557.35 674.05 567.8 688.9 567.8 703.7 567.8 714.2 557.35 724.65 546.85 724.65 532.05 Z"/>
</g>

<g id="Symbol_42_0_Layer0_5_MEMBER_0_FILL">
<path fill="#000000" stroke="none" d="
M 908.55 553.25
L 898.4 553.25 896 611.95 911 611.95 908.55 553.25 Z"/>
</g>

<g id="Symbol_42_0_Layer0_5_MEMBER_1_FILL">
<path fill="#0D0B0B" stroke="none" d="
M 878.2 496.75
Q 867.7 507.2 867.7 522.05 867.7 536.85 878.2 547.35 888.65 557.8 903.5 557.8 918.3 557.8 928.8 547.35 939.25 536.85 939.25 522.05 939.25 507.2 928.8 496.75 918.3 486.25 903.5 486.25 888.65 486.25 878.2 496.75 Z"/>
</g>

<g id="Symbol_42_0_Layer0_6_MEMBER_0_MEMBER_0_FILL">
<path fill="#121010" stroke="none" d="
M 217.65 390.55
L 0 390.55 0 611.95 217.65 611.95 217.65 390.55 Z"/>
</g>

<g id="Symbol_42_0_Layer0_6_MEMBER_1_FILL">
<path fill="#151212" stroke="none" d="
M 0 325.55
L 0 390.55 217.65 390.55 217.65 325.55 0 325.55 Z"/>
</g>

<g id="Symbol_42_0_Layer0_6_MEMBER_2_FILL">
<path fill="#050303" stroke="none" d="
M 71.55 407.05
L 71.55 390.55 -146.1 390.55 -146.1 407.05 71.55 407.05 Z"/>
</g>

<g id="Symbol_42_0_Layer0_7_FILL">
<path fill="#070505" stroke="none" d="
M 1137.8 618.3
L 1137.8 610.45 1.8 610.45 1.8 618.3 1137.8 618.3 Z"/>
</g>

<g id="Tween_82_0_Layer0_0_FILL">
<path fill="#CCCCCC" stroke="none" d="
M 126.75 139.75
Q 126.75 138.75 126.05 138 125.3 137.3 124.3 137.3 123.3 137.3 122.55 138 121.85 138.75 121.85 139.75 121.85 140.75 122.55 141.5 123.3 142.2 124.3 142.2 125.3 142.2 126.05 141.5 126.75 140.75 126.75 139.75
M 19.75 133.1
Q 18.75 134.1 18.75 135.55 18.75 137 19.75 138.05 20.8 139.05 22.25 139.05 23.7 139.05 24.75 138.05 25.75 137 25.75 135.55 25.75 134.1 24.75 133.1 23.7 132.05 22.25 132.05 20.8 132.05 19.75 133.1
M 20.5 112.1
Q 21.2 111.35 21.2 110.35 21.2 109.35 20.5 108.6 19.75 107.9 18.75 107.9 17.75 107.9 17 108.6 16.3 109.35 16.3 110.35 16.3 111.35 17 112.1 17.75 112.8 18.75 112.8 19.75 112.8 20.5 112.1
M 77.8 105.45
Q 77.8 104.45 77.1 103.7 76.35 103 75.35 103 74.35 103 73.6 103.7 72.9 104.45 72.9 105.45 72.9 106.45 73.6 107.2 74.35 107.9 75.35 107.9 76.35 107.9 77.1 107.2 77.8 106.45 77.8 105.45
M 52.35 71.2
Q 52.35 70.15 51.65 69.45 50.9 68.75 49.9 68.75 48.9 68.75 48.15 69.45 47.45 70.15 47.45 71.2 47.45 72.2 48.15 72.9 48.9 73.6 49.9 73.6 50.9 73.6 51.65 72.9 52.35 72.2 52.35 71.2
M 32.8 83.4
Q 32.8 81.7 31.6 80.5 30.4 79.3 28.7 79.3 27 79.3 25.8 80.5 24.6 81.7 24.6 83.4 24.6 85.15 25.8 86.35 27 87.55 28.7 87.55 30.4 87.55 31.6 86.35 32.8 85.1 32.8 83.4
M 38.2 37.65
Q 38.2 35.65 36.8 34.25 35.4 32.85 33.45 32.85 31.45 32.85 30.1 34.25 28.7 35.65 28.7 37.65 28.7 39.6 30.1 41 31.45 42.4 33.45 42.4 35.4 42.4 36.8 41 38.2 39.6 38.2 37.65
M 72.25 48.8
Q 72.25 47.8 71.55 47.05 70.8 46.35 69.8 46.35 68.8 46.35 68.05 47.05 67.35 47.8 67.35 48.8 67.35 49.8 68.05 50.55 68.8 51.25 69.8 51.25 70.8 51.25 71.55 50.55 72.25 49.8 72.25 48.8
M 159.45 97.25
Q 159.45 95.55 158.25 94.35 157.05 93.15 155.35 93.15 153.65 93.15 152.45 94.35 151.25 95.55 151.25 97.25 151.25 98.95 152.45 100.15 153.65 101.35 155.35 101.35 157.05 101.35 158.25 100.15 159.45 98.95 159.45 97.25
M 127.45 84.1
Q 126.75 84.85 126.75 85.85 126.75 86.85 127.45 87.6 128.2 88.3 129.2 88.3 130.2 88.3 130.95 87.6 131.65 86.85 131.65 85.85 131.65 84.85 130.95 84.1 130.2 83.4 129.2 83.4 128.2 83.4 127.45 84.1
M 143.9 73.6
Q 143.9 72.6 143.2 71.9 142.45 71.2 141.45 71.2 140.45 71.2 139.7 71.9 139 72.6 139 73.6 139 74.65 139.7 75.35 140.45 76.05 141.45 76.05 142.45 76.05 143.2 75.35 143.9 74.65 143.9 73.6
M 120.9 71.2
Q 120.9 70.15 120.2 69.45 119.45 68.75 118.45 68.75 117.45 68.75 116.7 69.45 116 70.15 116 71.2 116 72.2 116.7 72.9 117.45 73.6 118.45 73.6 119.45 73.6 120.2 72.9 120.9 72.2 120.9 71.2
M 85.15 44.25
Q 85.15 43.25 84.45 42.5 83.7 41.8 82.7 41.8 81.7 41.8 80.95 42.5 80.25 43.25 80.25 44.25 80.25 45.25 80.95 46 81.7 46.7 82.7 46.7 83.7 46.7 84.45 46 85.15 45.25 85.15 44.25
M 151.25 27.1
Q 151.25 26.1 150.55 25.35 149.8 24.65 148.8 24.65 147.8 24.65 147.05 25.35 146.35 26.1 146.35 27.1 146.35 28.1 147.05 28.85 147.8 29.55 148.8 29.55 149.8 29.55 150.55 28.85 151.25 28.1 151.25 27.1
M 258.95 144.65
Q 258.95 143.65 258.25 142.9 257.55 142.2 256.55 142.2 255.5 142.2 254.8 142.9 254.1 143.65 254.1 144.65 254.1 145.65 254.8 146.4 255.5 147.1 256.55 147.1 257.55 147.1 258.25 146.4 258.95 145.65 258.95 144.65
M 277.85 112.1
Q 278.55 111.35 278.55 110.35 278.55 109.35 277.85 108.6 277.1 107.9 276.1 107.9 275.1 107.9 274.35 108.6 273.65 109.35 273.65 110.35 273.65 111.35 274.35 112.1 275.1 112.8 276.1 112.8 277.1 112.8 277.85 112.1
M 228.25 187.75
Q 228.25 186.05 227.05 184.85 225.85 183.65 224.15 183.65 222.4 183.65 221.2 184.85 220 186.05 220 187.75 220 189.45 221.2 190.65 222.45 191.85 224.15 191.85 225.85 191.85 227.05 190.65 228.25 189.45 228.25 187.75
M 199.25 155.25
Q 199.25 154.25 198.55 153.5 197.8 152.8 196.8 152.8 195.8 152.8 195.05 153.5 194.35 154.25 194.35 155.25 194.35 156.25 195.05 157 195.8 157.7 196.8 157.7 197.8 157.7 198.55 157 199.25 156.25 199.25 155.25
M 180.6 120.15
Q 180.6 119.15 179.9 118.4 179.2 117.7 178.2 117.7 177.15 117.7 176.45 118.4 175.75 119.15 175.75 120.15 175.75 121.15 176.45 121.9 177.15 122.6 178.2 122.6 179.2 122.6 179.9 121.9 180.6 121.15 180.6 120.15
M 242.5 139.05
Q 242.5 137.35 241.3 136.15 240.1 134.95 238.4 134.95 236.7 134.95 235.5 136.15 234.3 137.35 234.3 139.05 234.3 140.75 235.5 141.95 236.7 143.15 238.4 143.15 240.15 143.15 241.3 141.95 242.5 140.8 242.5 139.05
M 209.2 139.05
Q 209.2 137.35 208 136.15 206.8 134.95 205.1 134.95 203.4 134.95 202.2 136.15 201 137.35 201 139.05 201 140.75 202.2 141.95 203.4 143.15 205.1 143.15 206.85 143.15 208 141.95 209.2 140.8 209.2 139.05
M 209.3 112.1
Q 210 111.35 210 110.35 210 109.35 209.3 108.6 208.55 107.9 207.55 107.9 206.55 107.9 205.8 108.6 205.1 109.35 205.1 110.35 205.1 111.35 205.8 112.1 206.55 112.8 207.55 112.8 208.55 112.8 209.3 112.1
M 229.6 76.05
Q 229.6 75.05 228.9 74.3 228.15 73.6 227.15 73.6 226.15 73.6 225.4 74.3 224.7 75.05 224.7 76.05 224.7 77.05 225.4 77.8 226.15 78.5 227.15 78.5 228.15 78.5 228.9 77.8 229.6 77.05 229.6 76.05
M 194.35 71.2
Q 194.35 70.15 193.65 69.45 192.9 68.75 191.9 68.75 190.9 68.75 190.15 69.45 189.45 70.15 189.45 71.2 189.45 72.2 190.15 72.9 190.9 73.6 191.9 73.6 192.9 73.6 193.65 72.9 194.35 72.2 194.35 71.2
M 187 39.35
Q 187 38.35 186.3 37.6 185.55 36.9 184.55 36.9 183.55 36.9 182.8 37.6 182.1 38.35 182.1 39.35 182.1 40.35 182.8 41.1 183.55 41.8 184.55 41.8 185.55 41.8 186.3 41.1 187 40.35 187 39.35
M 183.85 23.95
Q 184.55 23.2 184.55 22.2 184.55 21.2 183.85 20.45 183.1 19.75 182.1 19.75 181.1 19.75 180.35 20.45 179.65 21.2 179.65 22.2 179.65 23.2 180.35 23.95 181.1 24.65 182.1 24.65 183.1 24.65 183.85 23.95
M 210 17.3
Q 210 16.3 209.3 15.55 208.55 14.85 207.55 14.85 206.55 14.85 205.8 15.55 205.1 16.3 205.1 17.3 205.1 18.3 205.8 19.05 206.55 19.75 207.55 19.75 208.55 19.75 209.3 19.05 210 18.3 210 17.3
M 293.25 27.1
Q 293.25 26.1 292.55 25.35 291.8 24.65 290.8 24.65 289.8 24.65 289.05 25.35 288.35 26.1 288.35 27.1 288.35 28.1 289.05 28.85 289.8 29.55 290.8 29.55 291.8 29.55 292.55 28.85 293.25 28.1 293.25 27.1
M 342.2 61.4
Q 342.2 60.4 341.5 59.65 340.75 58.95 339.75 58.95 338.75 58.95 338 59.65 337.3 60.4 337.3 61.4 337.3 62.4 338 63.15 338.75 63.85 339.75 63.85 340.75 63.85 341.5 63.15 342.2 62.4 342.2 61.4
M -337.25 66.3
Q -337.25 65.3 -337.95 64.55 -338.7 63.85 -339.7 63.85 -340.7 63.85 -341.45 64.55 -342.15 65.3 -342.15 66.3 -342.15 67.3 -341.45 68.05 -340.7 68.75 -339.7 68.75 -338.7 68.75 -337.95 68.05 -337.25 67.3 -337.25 66.3
M -179.55 105.45
Q -179.55 104.45 -180.25 103.7 -181 103 -182 103 -183 103 -183.75 103.7 -184.45 104.45 -184.45 105.45 -184.45 106.45 -183.75 107.2 -183 107.9 -182 107.9 -181 107.9 -180.25 107.2 -179.55 106.45 -179.55 105.45
M -289 98.8
Q -289.7 98.1 -290.75 98.1 -291.75 98.1 -292.45 98.8 -293.15 99.55 -293.15 100.55 -293.15 101.55 -292.45 102.3 -291.75 103 -290.75 103 -289.7 103 -289 102.3 -288.3 101.55 -288.3 100.55 -288.3 99.55 -289 98.8
M -284.1 44.95
Q -284.85 44.25 -285.85 44.25 -286.85 44.25 -287.6 44.95 -288.3 45.7 -288.3 46.7 -288.3 47.7 -287.6 48.45 -286.85 49.15 -285.85 49.15 -284.85 49.15 -284.1 48.45 -283.4 47.7 -283.4 46.7 -283.4 45.7 -284.1 44.95
M -278.5 27.1
Q -278.5 26.1 -279.2 25.35 -279.95 24.65 -280.95 24.65 -281.95 24.65 -282.7 25.35 -283.4 26.1 -283.4 27.1 -283.4 28.1 -282.7 28.85 -281.95 29.55 -280.95 29.55 -279.95 29.55 -279.2 28.85 -278.5 28.1 -278.5 27.1
M -177.1 88.3
Q -177.1 87.3 -177.8 86.55 -178.55 85.85 -179.55 85.85 -180.55 85.85 -181.3 86.55 -182 87.3 -182 88.3 -182 89.3 -181.3 90.05 -180.55 90.75 -179.55 90.75 -178.55 90.75 -177.8 90.05 -177.1 89.3 -177.1 88.3
M -234.4 80.95
Q -234.4 79.95 -235.1 79.2 -235.85 78.5 -236.85 78.5 -237.85 78.5 -238.6 79.2 -239.3 79.95 -239.3 80.95 -239.3 81.95 -238.6 82.7 -237.85 83.4 -236.85 83.4 -235.85 83.4 -235.1 82.7 -234.4 81.95 -234.4 80.95
M -205.75 72.9
Q -205.05 72.2 -205.05 71.2 -205.05 70.15 -205.75 69.45 -206.5 68.75 -207.5 68.75 -208.5 68.75 -209.25 69.45 -209.95 70.15 -209.95 71.2 -209.95 72.2 -209.25 72.9 -208.5 73.6 -207.5 73.6 -206.5 73.6 -205.75 72.9
M -169.75 32
Q -169.75 31 -170.45 30.25 -171.2 29.55 -172.2 29.55 -173.2 29.55 -173.95 30.25 -174.65 31 -174.65 32 -174.65 33 -173.95 33.75 -173.2 34.45 -172.2 34.45 -171.2 34.45 -170.45 33.75 -169.75 33 -169.75 32
M -185.45 36.9
Q -185.45 35.9 -186.15 35.15 -186.9 34.45 -187.9 34.45 -188.9 34.45 -189.65 35.15 -190.35 35.9 -190.35 36.9 -190.35 37.9 -189.65 38.65 -188.9 39.35 -187.9 39.35 -186.9 39.35 -186.15 38.65 -185.45 37.9 -185.45 36.9
M -70.85 145.95
Q -72.15 144.65 -74.05 144.65 -75.95 144.65 -77.25 145.95 -78.6 147.3 -78.6 149.15 -78.6 151.05 -77.25 152.4 -75.95 153.7 -74.05 153.7 -72.15 153.7 -70.85 152.4 -69.5 151.05 -69.5 149.15 -69.5 147.3 -70.85 145.95
M -48.05 112.1
Q -47.35 111.35 -47.35 110.35 -47.35 109.35 -48.05 108.6 -48.8 107.9 -49.8 107.9 -50.8 107.9 -51.55 108.6 -52.25 109.35 -52.25 110.35 -52.25 111.35 -51.55 112.1 -50.8 112.8 -49.8 112.8 -48.8 112.8 -48.05 112.1
M -2.6 146.4
Q -1.85 147.1 -0.85 147.1 0.15 147.1 0.9 146.4 1.6 145.65 1.6 144.65 1.6 143.65 0.9 142.9 0.15 142.2 -0.85 142.2 -1.85 142.2 -2.6 142.9 -3.3 143.65 -3.3 144.65 -3.3 145.65 -2.6 146.4
M -13.85 148.15
Q -13.85 146.7 -14.85 145.65 -15.9 144.65 -17.35 144.65 -18.8 144.65 -19.85 145.65 -20.85 146.7 -20.85 148.15 -20.85 149.6 -19.85 150.6 -18.8 151.65 -17.35 151.65 -15.9 151.65 -14.85 150.6 -13.85 149.6 -13.85 148.15
M -130.6 139.75
Q -130.6 138.75 -131.3 138 -132.05 137.3 -133.05 137.3 -134.05 137.3 -134.8 138 -135.5 138.75 -135.5 139.75 -135.5 140.75 -134.8 141.5 -134.05 142.2 -133.05 142.2 -132.05 142.2 -131.3 141.5 -130.6 140.75 -130.6 139.75
M -156.75 107.2
Q -156.05 106.45 -156.05 105.45 -156.05 104.45 -156.75 103.7 -157.5 103 -158.5 103 -159.5 103 -160.25 103.7 -160.95 104.45 -160.95 105.45 -160.95 106.45 -160.25 107.2 -159.5 107.9 -158.5 107.9 -157.5 107.9 -156.75 107.2
M -97.9 117.35
Q -97.9 115.5 -99.25 114.15 -100.55 112.8 -102.45 112.8 -104.3 112.8 -105.65 114.15 -107 115.5 -107 117.35 -107 119.25 -105.65 120.55 -104.3 121.9 -102.45 121.9 -100.55 121.9 -99.25 120.55 -97.9 119.25 -97.9 117.35
M -89.05 98.6
Q -90.35 97.25 -92.25 97.25 -94.15 97.25 -95.5 98.6 -96.8 99.9 -96.8 101.8 -96.8 103.7 -95.5 105 -94.15 106.35 -92.25 106.35 -90.35 106.35 -89.05 105 -87.7 103.7 -87.7 101.8 -87.7 99.95 -89.05 98.6
M -108.55 79.35
Q -108.55 78.35 -109.25 77.6 -110 76.9 -111 76.9 -112 76.9 -112.75 77.6 -113.45 78.35 -113.45 79.35 -113.45 80.35 -112.75 81.1 -112 81.8 -111 81.8 -110 81.8 -109.25 81.1 -108.55 80.35 -108.55 79.35
M -125.7 85.85
Q -125.7 84.85 -126.4 84.1 -127.15 83.4 -128.15 83.4 -129.15 83.4 -129.9 84.1 -130.6 84.85 -130.6 85.85 -130.6 86.85 -129.9 87.6 -129.15 88.3 -128.15 88.3 -127.15 88.3 -126.4 87.6 -125.7 86.85 -125.7 85.85
M -123.25 63.85
Q -124.25 63.85 -125 64.55 -125.7 65.3 -125.7 66.3 -125.7 67.3 -125 68.05 -124.25 68.75 -123.25 68.75 -122.25 68.75 -121.5 68.05 -120.8 67.3 -120.8 66.3 -120.8 65.3 -121.5 64.55 -122.25 63.85 -123.25 63.85
M -136.45 71.2
Q -136.45 70.15 -137.15 69.45 -137.9 68.75 -138.9 68.75 -139.95 68.75 -140.65 69.45 -141.35 70.15 -141.35 71.2 -141.35 72.2 -140.65 72.9 -139.95 73.6 -138.9 73.6 -137.9 73.6 -137.15 72.9 -136.45 72.2 -136.45 71.2
M -160.95 5.65
Q -160.95 4.65 -161.65 3.9 -162.4 3.2 -163.4 3.2 -164.4 3.2 -165.15 3.9 -165.85 4.65 -165.85 5.65 -165.85 6.65 -165.15 7.4 -164.4 8.1 -163.4 8.1 -162.4 8.1 -161.65 7.4 -160.95 6.65 -160.95 5.65
M -31.6 98.8
Q -32.35 98.1 -33.35 98.1 -34.35 98.1 -35.1 98.8 -35.8 99.55 -35.8 100.55 -35.8 101.55 -35.1 102.3 -34.35 103 -33.35 103 -32.35 103 -31.6 102.3 -30.9 101.55 -30.9 100.55 -30.9 99.55 -31.6 98.8
M -29.15 59.55
Q -28.45 58.8 -28.45 57.8 -28.45 56.8 -29.15 56.05 -29.9 55.35 -30.9 55.35 -31.9 55.35 -32.65 56.05 -33.35 56.8 -33.35 57.8 -33.35 58.8 -32.65 59.55 -31.9 60.25 -30.9 60.25 -29.9 60.25 -29.15 59.55
M -62.95 77.85
Q -63.6 77.25 -64.45 77.25 -65.3 77.25 -65.95 77.85 -66.55 78.5 -66.55 79.35 -66.55 80.25 -65.95 80.85 -65.3 81.45 -64.45 81.45 -63.6 81.45 -62.95 80.85 -62.35 80.25 -62.35 79.35 -62.35 78.5 -62.95 77.85
M -73.25 71.2
Q -75.45 71.2 -77.05 72.75 -78.6 74.3 -78.6 76.5 -78.6 78.7 -77.05 80.3 -75.45 81.85 -73.25 81.85 -71.05 81.85 -69.45 80.3 -67.9 78.7 -67.9 76.5 -67.9 74.3 -69.45 72.75 -71.05 71.2 -73.25 71.2
M -72.8 22.2
Q -72.8 21.2 -73.5 20.45 -74.25 19.75 -75.25 19.75 -76.25 19.75 -77 20.45 -77.7 21.2 -77.7 22.2 -77.7 23.2 -77 23.95 -76.25 24.65 -75.25 24.65 -74.25 24.65 -73.5 23.95 -72.8 23.2 -72.8 22.2
M -48.05 19.05
Q -47.35 18.3 -47.35 17.3 -47.35 16.3 -48.05 15.55 -48.8 14.85 -49.8 14.85 -50.8 14.85 -51.55 15.55 -52.25 16.3 -52.25 17.3 -52.25 18.3 -51.55 19.05 -50.8 19.75 -49.8 19.75 -48.8 19.75 -48.05 19.05
M -26 46.7
Q -26 45.7 -26.7 44.95 -27.45 44.25 -28.45 44.25 -29.45 44.25 -30.2 44.95 -30.9 45.7 -30.9 46.7 -30.9 47.7 -30.2 48.45 -29.45 49.15 -28.45 49.15 -27.45 49.15 -26.7 48.45 -26 47.7 -26 46.7
M -25.3 28.85
Q -24.6 29.55 -23.6 29.55 -22.55 29.55 -21.85 28.85 -21.15 28.1 -21.15 27.1 -21.15 26.1 -21.85 25.35 -22.55 24.65 -23.6 24.65 -24.6 24.65 -25.3 25.35 -26 26.1 -26 27.1 -26 28.1 -25.3 28.85
M -36.4 19.05
Q -35.7 18.3 -35.7 17.3 -35.7 16.3 -36.4 15.55 -37.15 14.85 -38.15 14.85 -39.15 14.85 -39.9 15.55 -40.6 16.3 -40.6 17.3 -40.6 18.3 -39.9 19.05 -39.15 19.75 -38.15 19.75 -37.15 19.75 -36.4 19.05
M -6.45 -12.05
Q -6.45 -13.05 -7.15 -13.8 -7.9 -14.5 -8.9 -14.5 -9.9 -14.5 -10.65 -13.8 -11.35 -13.05 -11.35 -12.05 -11.35 -11.05 -10.65 -10.3 -9.9 -9.6 -8.9 -9.6 -7.9 -9.6 -7.15 -10.3 -6.45 -11.05 -6.45 -12.05
M -70.1 -7.15
Q -70.1 -8.2 -70.8 -8.9 -71.55 -9.6 -72.55 -9.6 -73.55 -9.6 -74.3 -8.9 -75 -8.2 -75 -7.15 -75 -6.15 -74.3 -5.45 -73.55 -4.75 -72.55 -4.75 -71.55 -4.75 -70.8 -5.45 -70.1 -6.15 -70.1 -7.15
M -49.8 -72.45
Q -49.8 -73.45 -50.5 -74.2 -51.25 -74.9 -52.25 -74.9 -53.25 -74.9 -54 -74.2 -54.7 -73.45 -54.7 -72.45 -54.7 -71.45 -54 -70.7 -53.25 -70 -52.25 -70 -51.25 -70 -50.5 -70.7 -49.8 -71.45 -49.8 -72.45
M -64.8 -81.55
Q -64.1 -82.3 -64.1 -83.3 -64.1 -84.3 -64.8 -85.05 -65.55 -85.75 -66.55 -85.75 -67.55 -85.75 -68.3 -85.05 -69 -84.3 -69 -83.3 -69 -82.3 -68.3 -81.55 -67.55 -80.85 -66.55 -80.85 -65.55 -80.85 -64.8 -81.55
M -31.6 -52.3
Q -30.9 -53.05 -30.9 -54.05 -30.9 -55.05 -31.6 -55.8 -32.35 -56.5 -33.35 -56.5 -34.35 -56.5 -35.1 -55.8 -35.8 -55.05 -35.8 -54.05 -35.8 -53.05 -35.1 -52.3 -34.35 -51.6 -33.35 -51.6 -32.35 -51.6 -31.6 -52.3
M -121.8 -12.05
Q -121.8 -13.05 -122.5 -13.8 -123.25 -14.5 -124.25 -14.5 -125.25 -14.5 -126 -13.8 -126.7 -13.05 -126.7 -12.05 -126.7 -11.05 -126 -10.3 -125.25 -9.6 -124.25 -9.6 -123.25 -9.6 -122.5 -10.3 -121.8 -11.05 -121.8 -12.05
M -102.1 -189.35
Q -102.1 -190.35 -102.8 -191.1 -103.55 -191.8 -104.55 -191.8 -105.55 -191.8 -106.3 -191.1 -107 -190.35 -107 -189.35 -107 -188.35 -106.3 -187.6 -105.55 -186.9 -104.55 -186.9 -103.55 -186.9 -102.8 -187.6 -102.1 -188.35 -102.1 -189.35
M -21.15 -189.35
Q -21.15 -190.35 -21.85 -191.1 -22.55 -191.8 -23.6 -191.8 -24.6 -191.8 -25.3 -191.1 -26 -190.35 -26 -189.35 -26 -188.35 -25.3 -187.6 -24.6 -186.9 -23.6 -186.9 -22.55 -186.9 -21.85 -187.6 -21.15 -188.35 -21.15 -189.35
M -263.8 -12.05
Q -263.8 -13.05 -264.5 -13.8 -265.25 -14.5 -266.25 -14.5 -267.25 -14.5 -268 -13.8 -268.7 -13.05 -268.7 -12.05 -268.7 -11.05 -268 -10.3 -267.25 -9.6 -266.25 -9.6 -265.25 -9.6 -264.5 -10.3 -263.8 -11.05 -263.8 -12.05
M -327.45 -7.15
Q -327.45 -8.2 -328.15 -8.9 -328.9 -9.6 -329.9 -9.6 -330.9 -9.6 -331.65 -8.9 -332.35 -8.2 -332.35 -7.15 -332.35 -6.15 -331.65 -5.45 -330.9 -4.75 -329.9 -4.75 -328.9 -4.75 -328.15 -5.45 -327.45 -6.15 -327.45 -7.15
M 227.15 -0.7
Q 227.15 -1.7 226.45 -2.45 225.7 -3.15 224.7 -3.15 223.7 -3.15 222.95 -2.45 222.25 -1.7 222.25 -0.7 222.25 0.3 222.95 1.05 223.7 1.75 224.7 1.75 225.7 1.75 226.45 1.05 227.15 0.3 227.15 -0.7
M 234.5 -20.3
Q 234.5 -21.3 233.8 -22.05 233.05 -22.75 232.05 -22.75 231.05 -22.75 230.3 -22.05 229.6 -21.3 229.6 -20.3 229.6 -19.3 230.3 -18.55 231.05 -17.85 232.05 -17.85 233.05 -17.85 233.8 -18.55 234.5 -19.3 234.5 -20.3
M 178.2 -14.5
Q 178.2 -15.5 177.5 -16.25 176.75 -16.95 175.75 -16.95 174.7 -16.95 174 -16.25 173.3 -15.5 173.3 -14.5 173.3 -13.5 174 -12.75 174.7 -12.05 175.75 -12.05 176.75 -12.05 177.5 -12.75 178.2 -13.5 178.2 -14.5
M 179.65 -54.05
Q 179.65 -55.8 178.4 -57.1 177.15 -58.35 175.35 -58.35 173.6 -58.35 172.35 -57.1 171.1 -55.8 171.1 -54.05 171.1 -52.3 172.35 -51.05 173.6 -49.8 175.35 -49.8 177.15 -49.8 178.4 -51.05 179.65 -52.3 179.65 -54.05
M 178.4 -100.15
Q 177.15 -101.4 175.35 -101.4 173.6 -101.4 172.35 -100.15 171.1 -98.9 171.1 -97.15 171.1 -95.4 172.35 -94.1 173.6 -92.85 175.35 -92.85 177.15 -92.85 178.4 -94.1 179.65 -95.4 179.65 -97.15 179.65 -98.9 178.4 -100.15
M 204.3 -166.5
Q 204.3 -167.5 203.6 -168.25 202.85 -168.95 201.85 -168.95 200.85 -168.95 200.1 -168.25 199.4 -167.5 199.4 -166.5 199.4 -165.5 200.1 -164.75 200.85 -164.05 201.85 -164.05 202.85 -164.05 203.6 -164.75 204.3 -165.5 204.3 -166.5
M 135.55 -12.05
Q 135.55 -13.05 134.85 -13.8 134.15 -14.5 133.1 -14.5 132.1 -14.5 131.4 -13.8 130.7 -13.05 130.7 -12.05 130.7 -11.05 131.4 -10.3 132.1 -9.6 133.1 -9.6 134.15 -9.6 134.85 -10.3 135.55 -11.05 135.55 -12.05
M 116.65 -0.7
Q 116.65 -1.7 115.95 -2.45 115.2 -3.15 114.2 -3.15 113.2 -3.15 112.45 -2.45 111.75 -1.7 111.75 -0.7 111.75 0.3 112.45 1.05 113.2 1.75 114.2 1.75 115.2 1.75 115.95 1.05 116.65 0.3 116.65 -0.7
M 118.5 -65.7
Q 118.5 -67.5 117.25 -68.75 115.95 -70 114.2 -70 112.45 -70 111.2 -68.75 109.95 -67.5 109.95 -65.7 109.95 -63.95 111.2 -62.7 112.45 -61.45 114.2 -61.45 115.95 -61.45 117.25 -62.7 118.5 -63.95 118.5 -65.7
M 94.75 -53.15
Q 96.4 -54.85 96.4 -57.2 96.4 -59.55 94.75 -61.2 93.05 -62.85 90.7 -62.85 88.35 -62.85 86.7 -61.2 85.05 -59.55 85.05 -57.2 85.05 -54.85 86.7 -53.15 88.35 -51.5 90.7 -51.5 93.05 -51.5 94.75 -53.15
M 76.6 -35.95
Q 76.6 -37.7 75.35 -38.95 74.05 -40.2 72.3 -40.2 70.55 -40.2 69.3 -38.95 68.05 -37.7 68.05 -35.95 68.05 -34.2 69.3 -32.95 70.55 -31.7 72.3 -31.7 74.05 -31.7 75.35 -32.95 76.6 -34.2 76.6 -35.95
M 2.65 -61.45
Q 2.65 -62.45 1.95 -63.2 1.2 -63.9 0.2 -63.9 -0.8 -63.9 -1.55 -63.2 -2.25 -62.45 -2.25 -61.45 -2.25 -60.45 -1.55 -59.7 -0.8 -59 0.2 -59 1.2 -59 1.95 -59.7 2.65 -60.45 2.65 -61.45
M 159.75 -133.35
Q 159.75 -131.6 161 -130.35 162.25 -129.1 164 -129.1 165.75 -129.1 167 -130.35 168.25 -131.6 168.25 -133.35 168.25 -135.1 167 -136.4 165.75 -137.65 164 -137.65 162.25 -137.65 161 -136.4 159.75 -135.1 159.75 -133.35
M 148.8 -137.65
Q 148.8 -138.65 148.1 -139.4 147.35 -140.1 146.35 -140.1 145.35 -140.1 144.6 -139.4 143.9 -138.65 143.9 -137.65 143.9 -136.65 144.6 -135.9 145.35 -135.2 146.35 -135.2 147.35 -135.2 148.1 -135.9 148.8 -136.65 148.8 -137.65 Z"/>
</g>

<g id="Tween_79_0_Layer0_0_MEMBER_1_FILL">
<path fill="#000000" stroke="none" d="
M 385.6 -1506.95
Q 383.85 -1505.2 383.85 -1502.7 383.85 -1500.2 385.6 -1498.4 387.35 -1496.65 389.85 -1496.65 392.35 -1496.65 394.1 -1498.4 395.85 -1500.2 395.85 -1502.7 395.85 -1505.15 394.1 -1506.95 392.35 -1508.7 389.85 -1508.7 387.35 -1508.7 385.6 -1506.95 Z"/>
</g>

<g id="Tween_77_0_Layer0_0_MEMBER_1_FILL">
<path fill="#000000" stroke="none" d="
M 246.35 -1502.9
Q 246.35 -1505.35 244.6 -1507.15 242.85 -1508.9 240.35 -1508.9 237.85 -1508.9 236.05 -1507.15 234.3 -1505.4 234.3 -1502.9 234.3 -1500.4 236.05 -1498.6 237.85 -1496.85 240.35 -1496.85 242.85 -1496.85 244.6 -1498.6 246.35 -1500.4 246.35 -1502.9 Z"/>
</g>

<path id="Tween_73_0_Layer0_0_1_STROKES" stroke="url(#Gradient_1)" stroke-width="24" stroke-linejoin="miter" stroke-linecap="butt" stroke-miterlimit="10" fill="none" d="
M 31.35 -241.25
L 5.65 -215.55 208.125 -215.55 208.75 -216.175 208.75 -350.2
M 208.75 -216.175
L 235.25 -242.65
M 208.125 -215.55
L 208.75 -215.55 208.75 -216.175
M 208.75 -215.55
L 319.15 -215.55
M 4.1 -350.2
L 4.1 -215.55 5.65 -215.55 4.1 -214 4.1 0.05 4.55 0.05 31.35 -26.75
M 4.1 -215.55
L 4.1 -214 -23.6 -186.3
M 208.75 -215.55
L 208.75 -1.675 235.25 -28.15
M 180.3 -187.75
L 208.125 -215.55
M 207.025 0.05
L 208.75 0.05 208.75 -1.675 207.025 0.05 180.3 26.75
M 208.75 0.05
L 319.15 0.05
M 4.1 0.05
L 4.1 0.5 4.55 0.05 207.025 0.05
M 4.1 219.175
L 7.725 215.55 4.1 215.55 4.1 219.175 4.1 431 4.55 431 31.35 404.2
M 4.1 0.5
L 4.1 215.4 7.875 215.4 31.35 191.95
M 7.725 215.55
L 7.875 215.4 208.75 215.4 208.75 0.05
M 4.1 215.4
L 4.1 215.55 -197.525 215.55 -200.6 218.625 -200.6 430.9 -173.9 404.2
M 235.25 190.5
L 210.35 215.4 217.25 215.475 319.15 215.4
M 210.35 215.4
L 210.2 215.55 217.25 215.475
M 210.2 215.55
L 208.75 215.55 208.75 217 210.2 215.55 Z
M 210.35 215.4
L 208.75 215.4 208.75 215.55 7.725 215.55
M 180.3 245.45
L 208.75 217 208.75 429.275 235.25 402.8
M 4.55 431
L 207.025 431 208.75 429.275 208.75 431 319.15 431
M 207.025 431
L 208.75 431 208.75 646.5 210.2 646.5 235.25 621.45
M 180.3 457.7
L 207.025 431
M 4.1 431
L 4.1 431.45 4.55 431
M 4.1 431.45
L 4.1 646.5 7.725 646.5 31.35 622.9
M 4.1 646.5
L 4.1 650.125 7.725 646.5 208.75 646.5 208.75 647.95 210.2 646.5 308.45 646.5
M 4.1 650.125
L 4.1 781.15
M 180.3 676.4
L 208.75 647.95 208.75 781.15
M -200.6 -350.2
L -200.6 -215.55 -199.6 -215.55 -173.9 -241.25
M -200.6 -215.55
L -200.6 -214.55 -199.6 -215.55 4.1 -215.55
M -319.15 -215.55
L -200.6 -215.55
M -200.6 -214.55
L -200.6 -0.05 -173.9 -26.75
M -228.85 -186.3
L -200.6 -214.55
M -200.7 0.05
L -200.6 0.05 -200.6 -0.05 -200.7 0.05 -228.85 28.2
M -319.15 0.05
L -200.7 0.05
M -197.525 215.55
L -200.6 215.55 -200.6 218.625 -228.85 246.85
M -197.525 215.55
L -197.375 215.4 -200.6 215.4 -200.6 215.55 -207.325 215.475 -319.15 215.4
M -207.325 215.475
L -200.6 215.4 -200.6 0.05 4.1 0.05
M -197.375 215.4
L -173.9 191.95
M -319.15 431
L -200.7 431 -200.6 430.9 -200.6 431 4.1 431
M -200.7 431
L -200.6 431 -200.6 646.5 -197.525 646.5 -173.9 622.9
M -228.85 459.15
L -200.7 431
M -200.6 646.5
L -200.6 649.575 -197.525 646.5 4.1 646.5
M -228.85 677.8
L -200.6 649.575 -200.6 781.15
M -308.35 646.5
L -200.6 646.5
M -197.375 215.4
L 4.1 215.4
M -23.6 246.85
L 4.1 219.175
M -23.6 459.15
L 4.1 431.45
M -23.6 677.8
L 4.1 650.125
M -23.6 28.2
L 4.1 0.5"/>

<path id="Tween_79_0_Layer0_0_MEMBER_0_1_STROKES" stroke="#000000" stroke-width="6" stroke-linejoin="round" stroke-linecap="round" fill="none" d="
M 70.22299575805664 173.4357856750488
L 52.6811637878418 -8.702100372314476 -48.96772537231453 -109.6376777648926"/>

<path id="Tween_77_0_Layer0_0_MEMBER_0_1_STROKES" stroke="#000000" stroke-width="6" stroke-linejoin="round" stroke-linecap="round" fill="none" d="
M -75.5472549438482 148.70728225708035
L -27.458428192138854 8.821662139892851 56.55522232055591 -93.68814239501944"/>
</defs>

<g enable-background="new">
<mask id="Mask_Mask_1">
<g transform="matrix( 1, 0, 0, 1, 0,0) ">
<use xlink:href="#Mask_12_MASK_0_FILL"/>
</g>
</mask>

<g mask="url(#Mask_Mask_1)">
<g transform="matrix( 1, 0, 0, 1, 0,0) ">
<use xlink:href="#Layer12_0_FILL"/>
</g>
</g>

<g mask="url(#Mask_Mask_1)">
<g transform="matrix( 1, 0, 0, 1, -146.2,1030) ">
<g transform="matrix( 0.6424407958984375, 0.003143310546875, -0.003570556640625, 0.564483642578125, -363.4,-261) ">
<use xlink:href="#Tween_83_0_Layer0_0_MEMBER_0_FILL"/>
</g>

<g filter="url(#Filter_1)" transform="matrix( 1, 0, 0, 1, 146.2,-1030) ">
<g transform="matrix( 0.6424407958984375, 0.003143310546875, -0.003570556640625, 0.564483642578125, 95.65,994.25) ">
<g transform="matrix( 1, 0, 0, 1, 0,0) ">
<use xlink:href="#FlashAICB_Assets_Layer_1__Group__1_0_Layer0_0_MEMBER_0_FILL"/>
</g>

<g transform="matrix( 1, 0, 0, 1, 0,0) ">
<use xlink:href="#FlashAICB_Assets_Layer_1__Group__1_0_Layer0_0_MEMBER_1_FILL"/>
</g>

<g transform="matrix( 1, 0, 0, 1, 0,0) ">
<use xlink:href="#FlashAICB_Assets_Layer_1__Group__1_0_Layer0_0_MEMBER_2_FILL"/>
</g>
</g>
</g>

<g filter="url(#Filter_2)" transform="matrix( 1, 0, 0, 1, 146.2,-1030) ">
<g transform="matrix( 0.6424407958984375, 0.003143310546875, -0.003570556640625, 0.564483642578125, 95.1,1054.4) ">
<g transform="matrix( 1, 0, 0, 1, 0,0) ">
<use xlink:href="#FlashAICB_Assets_Layer_1__Group__0_Layer0_0_MEMBER_0_FILL"/>
</g>

<g transform="matrix( 1, 0, 0, 1, 0,0) ">
<use xlink:href="#FlashAICB_Assets_Layer_1__Group__0_Layer0_0_MEMBER_1_FILL"/>
</g>

<g transform="matrix( 1, 0, 0, 1, 0,0) ">
<use xlink:href="#FlashAICB_Assets_Layer_1__Group__0_Layer0_0_MEMBER_2_FILL"/>
</g>
</g>
</g>

<g transform="matrix( 0.6424407958984375, 0.003143310546875, -0.003570556640625, 0.564483642578125, -363.4,-261) ">
<use xlink:href="#Tween_83_0_Layer0_0_MEMBER_3_FILL"/>
</g>

<g transform="matrix( 0.6424407958984375, 0.003143310546875, -0.003570556640625, 0.564483642578125, -363.4,-261) ">
<use xlink:href="#Tween_83_0_Layer0_0_MEMBER_4_FILL"/>
</g>

<g filter="url(#Filter_3)" transform="matrix( 1, 0, 0, 1, 146.2,-1030) ">
<g transform="matrix( 0.6424407958984375, 0.003143310546875, -0.003570556640625, 0.564483642578125, 145.65,947.65) ">
<g transform="matrix( 1, 0, 0, 1, 0,0) ">
<use xlink:href="#FlashAICB_Assets_Layer_1__Path__0_Layer0_0_FILL"/>
</g>
</g>
</g>

<g transform="matrix( 0.6424407958984375, 0.003143310546875, -0.003570556640625, 0.564483642578125, -363.4,-261) ">
<use xlink:href="#Tween_83_0_Layer0_1_MEMBER_0_FILL"/>
</g>

<g filter="url(#Filter_4)" transform="matrix( 1, 0, 0, 1, 146.2,-1030) ">
<g transform="matrix( 0.6424407958984375, 0.003143310546875, -0.003570556640625, 0.564483642578125, -41.2,1007.35) ">
<g transform="matrix( 1, 0, 0, 1, 0,0) ">
<use xlink:href="#FlashAICB_Assets_Layer_1__Path__7_0_Layer0_0_FILL"/>
</g>
</g>
</g>

<g filter="url(#Filter_4)" transform="matrix( 1, 0, 0, 1, 146.2,-1030) ">
<g transform="matrix( 0.6424407958984375, 0.003143310546875, -0.003570556640625, 0.564483642578125, 0.3,1007.4) ">
<g transform="matrix( 1, 0, 0, 1, 0,0) ">
<use xlink:href="#FlashAICB_Assets_Layer_1__Path__6_0_Layer0_0_FILL"/>
</g>
</g>
</g>

<g filter="url(#Filter_4)" transform="matrix( 1, 0, 0, 1, 146.2,-1030) ">
<g transform="matrix( 0.6424407958984375, 0.003143310546875, -0.003570556640625, 0.564483642578125, 41.65,1007.4) ">
<g transform="matrix( 1, 0, 0, 1, 0,0) ">
<use xlink:href="#FlashAICB_Assets_Layer_1__Path__5_0_Layer0_0_FILL"/>
</g>
</g>
</g>

<g filter="url(#Filter_5)" transform="matrix( 1, 0, 0, 1, 146.2,-1030) ">
<g transform="matrix( 0.6424407958984375, 0.003143310546875, -0.003570556640625, 0.564483642578125, -38.4,1055.6) ">
<g transform="matrix( 1, 0, 0, 1, 0,0) ">
<use xlink:href="#FlashAICB_Assets_Layer_1__Path__4_0_Layer0_0_FILL"/>
</g>
</g>
</g>

<g filter="url(#Filter_6)" transform="matrix( 1, 0, 0, 1, 146.2,-1030) ">
<g transform="matrix( 0.6424407958984375, 0.003143310546875, -0.003570556640625, 0.564483642578125, 1.15,1055.75) ">
<g transform="matrix( 1, 0, 0, 1, 0,0) ">
<use xlink:href="#FlashAICB_Assets_Layer_1__Path__3_0_Layer0_0_FILL"/>
</g>
</g>
</g>

<g filter="url(#Filter_5)" transform="matrix( 1, 0, 0, 1, 146.2,-1030) ">
<g transform="matrix( 0.6424407958984375, 0.003143310546875, -0.003570556640625, 0.564483642578125, 42.5,1055.75) ">
<g transform="matrix( 1, 0, 0, 1, 0,0) ">
<use xlink:href="#FlashAICB_Assets_Layer_1__Path__2_0_0_Layer0_0_FILL"/>
</g>
</g>
</g>

<g transform="matrix( 0.6424407958984375, 0.003143310546875, -0.003570556640625, 0.564483642578125, -363.4,-261) ">
<use xlink:href="#Tween_83_0_Layer0_1_MEMBER_7_FILL"/>
</g>

<g transform="matrix( 0.6424407958984375, 0.003143310546875, -0.003570556640625, 0.564483642578125, -363.4,-261) ">
<use xlink:href="#Tween_83_0_Layer0_1_MEMBER_8_FILL"/>
</g>

<g transform="matrix( 0.6424407958984375, 0.003143310546875, -0.003570556640625, 0.564483642578125, -363.4,-261) ">
<use xlink:href="#Tween_83_0_Layer0_2_MEMBER_0_FILL"/>
</g>

<g filter="url(#Filter_7)" transform="matrix( 1, 0, 0, 1, 146.2,-1030) ">
<g transform="matrix( 0.6424407958984375, 0.003143310546875, -0.003570556640625, 0.564483642578125, -334.35,1045.7) ">
<g transform="matrix( 1, 0, 0, 1, 0,0) ">
<use xlink:href="#FlashAICB_Assets_Layer_1__Path__1_0_Layer0_0_FILL"/>
</g>
</g>
</g>

<g transform="matrix( 0.6424407958984375, 0.003143310546875, -0.003570556640625, 0.564483642578125, -363.4,-261) ">
<use xlink:href="#Tween_83_0_Layer0_2_MEMBER_2_FILL"/>
</g>

<g transform="matrix( 0.6424407958984375, 0.003143310546875, -0.003570556640625, 0.564483642578125, -363.4,-261) ">
<use xlink:href="#Tween_83_0_Layer0_3_MEMBER_0_FILL"/>
</g>

<g transform="matrix( 0.6424407958984375, 0.003143310546875, -0.003570556640625, 0.564483642578125, -363.4,-261) ">
<use xlink:href="#Tween_83_0_Layer0_3_MEMBER_1_FILL"/>
</g>

<g transform="matrix( 0.6424407958984375, 0.003143310546875, -0.003570556640625, 0.564483642578125, -363.4,-261) ">
<use xlink:href="#Tween_83_0_Layer0_4_MEMBER_0_FILL"/>
</g>

<g transform="matrix( 0.6424407958984375, 0.003143310546875, -0.003570556640625, 0.564483642578125, -363.4,-261) ">
<use xlink:href="#Tween_83_0_Layer0_4_MEMBER_1_FILL"/>
</g>

<g transform="matrix( 0.6424407958984375, 0.003143310546875, -0.003570556640625, 0.564483642578125, -363.4,-261) ">
<use xlink:href="#Tween_83_0_Layer0_5_MEMBER_0_FILL"/>
</g>

<g transform="matrix( 0.6424407958984375, 0.003143310546875, -0.003570556640625, 0.564483642578125, -363.4,-261) ">
<use xlink:href="#Tween_83_0_Layer0_5_MEMBER_1_FILL"/>
</g>

<g transform="matrix( 0.6424407958984375, 0.003143310546875, -0.003570556640625, 0.564483642578125, -363.4,-261) ">
<use xlink:href="#Tween_83_0_Layer0_6_MEMBER_0_MEMBER_0_FILL"/>
</g>

<g filter="url(#Filter_8)" transform="matrix( 1, 0, 0, 1, 146.2,-1030) ">
<g transform="matrix( 0.6424407958984375, 0.003143310546875, -0.003570556640625, 0.564483642578125, -500.6,1013.65) ">
<g transform="matrix( 1, 0, 0, 1, 0,0) ">
<use xlink:href="#FlashAICB_Assets_Layer_1__Group__0_0_Layer0_0_MEMBER_0_FILL"/>
</g>

<g transform="matrix( 1, 0, 0, 1, 0,0) ">
<use xlink:href="#FlashAICB_Assets_Layer_1__Group__0_0_Layer0_0_MEMBER_1_FILL"/>
</g>

<g transform="matrix( 1, 0, 0, 1, 0,0) ">
<use xlink:href="#FlashAICB_Assets_Layer_1__Group__0_0_Layer0_0_MEMBER_2_FILL"/>
</g>
</g>
</g>

<g transform="matrix( 0.6424407958984375, 0.003143310546875, -0.003570556640625, 0.564483642578125, -363.4,-261) ">
<use xlink:href="#Tween_83_0_Layer0_6_MEMBER_1_FILL"/>
</g>

<g transform="matrix( 0.6424407958984375, 0.003143310546875, -0.003570556640625, 0.564483642578125, -268.9,-260.7) ">
<use xlink:href="#Tween_83_0_Layer0_6_MEMBER_2_FILL"/>
</g>

<g transform="matrix( 0.64239501953125, 0.00311279296875, -0.0035552978515625, 0.564453125, -363.2,-261.25) ">
<use xlink:href="#Tween_83_0_Layer0_7_FILL"/>
</g>
</g>
</g>

<g mask="url(#Mask_Mask_1)">
<g transform="matrix( 1, 0, 0, 1, 14.55,819.3) ">
<g transform="matrix( 1.95306396484375, 0, 0, 1.95306396484375, -1111.2,-895.25) ">
<use filter="url(#Filter_9)" xlink:href="#Symbol_42_0_Layer0_0_MEMBER_0_FILL"/>
</g>

<g filter="url(#Filter_10)" transform="matrix( 1, 0, 0, 1, -14.55,-819.3) ">
<g transform="matrix( 1.95306396484375, 0, 0, 1.95306396484375, 747.5,693.95) ">
<g transform="matrix( 1, 0, 0, 1, 0,0) ">
<use filter="url(#Filter_9)" xlink:href="#FlashAICB_Assets_Layer_1__Group__1_0_Layer0_0_MEMBER_0_FILL"/>
</g>

<g transform="matrix( 1, 0, 0, 1, 0,0) ">
<use filter="url(#Filter_9)" xlink:href="#FlashAICB_Assets_Layer_1__Group__1_0_Layer0_0_MEMBER_1_FILL"/>
</g>

<g transform="matrix( 1, 0, 0, 1, 0,0) ">
<use filter="url(#Filter_9)" xlink:href="#FlashAICB_Assets_Layer_1__Group__1_0_Layer0_0_MEMBER_2_FILL"/>
</g>
</g>
</g>

<g filter="url(#Filter_11)" transform="matrix( 1, 0, 0, 1, -14.55,-819.3) ">
<g transform="matrix( 1.95306396484375, 0, 0, 1.95306396484375, 747.5,902.9) ">
<g transform="matrix( 1, 0, 0, 1, 0,0) ">
<use filter="url(#Filter_9)" xlink:href="#FlashAICB_Assets_Layer_1__Group__0_Layer0_0_MEMBER_0_FILL"/>
</g>

<g transform="matrix( 1, 0, 0, 1, 0,0) ">
<use filter="url(#Filter_9)" xlink:href="#FlashAICB_Assets_Layer_1__Group__0_Layer0_0_MEMBER_1_FILL"/>
</g>

<g transform="matrix( 1, 0, 0, 1, 0,0) ">
<use filter="url(#Filter_9)" xlink:href="#FlashAICB_Assets_Layer_1__Group__0_Layer0_0_MEMBER_2_FILL"/>
</g>
</g>
</g>

<g transform="matrix( 1.95306396484375, 0, 0, 1.95306396484375, -1111.2,-895.25) ">
<use filter="url(#Filter_9)" xlink:href="#Symbol_42_0_Layer0_0_MEMBER_3_FILL"/>
</g>

<g transform="matrix( 1.95306396484375, 0, 0, 1.95306396484375, -1111.2,-895.25) ">
<use filter="url(#Filter_9)" xlink:href="#Symbol_42_0_Layer0_0_MEMBER_4_FILL"/>
</g>

<g filter="url(#Filter_12)" transform="matrix( 1, 0, 0, 1, -14.55,-819.3) ">
<g transform="matrix( 1.95306396484375, 0, 0, 1.95306396484375, 899.2,533.5) ">
<g transform="matrix( 1, 0, 0, 1, 0,0) ">
<use filter="url(#Filter_9)" xlink:href="#FlashAICB_Assets_Layer_1__Path__0_Layer0_0_FILL"/>
</g>
</g>
</g>

<g transform="matrix( 1.95306396484375, 0, 0, 1.95306396484375, -1111.2,-895.25) ">
<use filter="url(#Filter_9)" xlink:href="#Symbol_42_0_Layer0_1_MEMBER_0_FILL"/>
</g>

<g filter="url(#Filter_13)" transform="matrix( 1, 0, 0, 1, -14.55,-819.3) ">
<g transform="matrix( 1.95306396484375, 0, 0, 1.95306396484375, 331.35,741.7) ">
<g transform="matrix( 1, 0, 0, 1, 0,0) ">
<use filter="url(#Filter_9)" xlink:href="#FlashAICB_Assets_Layer_1__Path__7_0_Layer0_0_FILL"/>
</g>
</g>
</g>

<g filter="url(#Filter_13)" transform="matrix( 1, 0, 0, 1, -14.55,-819.3) ">
<g transform="matrix( 1.95306396484375, 0, 0, 1.95306396484375, 457.7,741.7) ">
<g transform="matrix( 1, 0, 0, 1, 0,0) ">
<use filter="url(#Filter_9)" xlink:href="#FlashAICB_Assets_Layer_1__Path__6_0_Layer0_0_FILL"/>
</g>
</g>
</g>

<g filter="url(#Filter_13)" transform="matrix( 1, 0, 0, 1, -14.55,-819.3) ">
<g transform="matrix( 1.95306396484375, 0, 0, 1.95306396484375, 583.25,741.7) ">
<g transform="matrix( 1, 0, 0, 1, 0,0) ">
<use filter="url(#Filter_9)" xlink:href="#FlashAICB_Assets_Layer_1__Path__5_0_Layer0_0_FILL"/>
</g>
</g>
</g>

<g filter="url(#Filter_14)" transform="matrix( 1, 0, 0, 1, -14.55,-819.3) ">
<g transform="matrix( 1.95306396484375, 0, 0, 1.95306396484375, 340.1,909.4) ">
<g transform="matrix( 1, 0, 0, 1, 0,0) ">
<use filter="url(#Filter_9)" xlink:href="#FlashAICB_Assets_Layer_1__Path__4_0_Layer0_0_FILL"/>
</g>
</g>
</g>

<g filter="url(#Filter_15)" transform="matrix( 1, 0, 0, 1, -14.55,-819.3) ">
<g transform="matrix( 1.95306396484375, 0, 0, 1.95306396484375, 461.4,909.4) ">
<g transform="matrix( 1, 0, 0, 1, 0,0) ">
<use filter="url(#Filter_9)" xlink:href="#FlashAICB_Assets_Layer_1__Path__3_0_Layer0_0_FILL"/>
</g>
</g>
</g>

<g filter="url(#Filter_14)" transform="matrix( 1, 0, 0, 1, -14.55,-819.3) ">
<g transform="matrix( 1.95306396484375, 0, 0, 1.95306396484375, 586.95,909.4) ">
<g transform="matrix( 1, 0, 0, 1, 0,0) ">
<use filter="url(#Filter_9)" xlink:href="#FlashAICB_Assets_Layer_1__Path__2_0_0_Layer0_0_FILL"/>
</g>
</g>
</g>

<g transform="matrix( 1.95306396484375, 0, 0, 1.95306396484375, -1111.2,-895.25) ">
<use filter="url(#Filter_9)" xlink:href="#Symbol_42_0_Layer0_1_MEMBER_7_FILL"/>
</g>

<g transform="matrix( 1.95306396484375, 0, 0, 1.95306396484375, -1111.2,-895.25) ">
<use filter="url(#Filter_9)" xlink:href="#Symbol_42_0_Layer0_1_MEMBER_8_FILL"/>
</g>

<g transform="matrix( 1.95306396484375, 0, 0, 1.95306396484375, -1111.2,-895.25) ">
<use filter="url(#Filter_9)" xlink:href="#Symbol_42_0_Layer0_2_MEMBER_0_FILL"/>
</g>

<g filter="url(#Filter_16)" transform="matrix( 1, 0, 0, 1, -14.55,-819.3) ">
<g transform="matrix( 1.95306396484375, 0, 0, 1.95306396484375, -558.8,880.1) ">
<g transform="matrix( 1, 0, 0, 1, 0,0) ">
<use filter="url(#Filter_9)" xlink:href="#FlashAICB_Assets_Layer_1__Path__1_0_Layer0_0_FILL"/>
</g>
</g>
</g>

<g transform="matrix( 1.95306396484375, 0, 0, 1.95306396484375, -1111.2,-895.25) ">
<use filter="url(#Filter_9)" xlink:href="#Symbol_42_0_Layer0_2_MEMBER_2_FILL"/>
</g>

<g transform="matrix( 1.95306396484375, 0, 0, 1.95306396484375, -1111.2,-895.25) ">
<use filter="url(#Filter_9)" xlink:href="#Symbol_42_0_Layer0_3_MEMBER_0_FILL"/>
</g>

<g transform="matrix( 1.95306396484375, 0, 0, 1.95306396484375, -1111.2,-895.25) ">
<use filter="url(#Filter_9)" xlink:href="#Symbol_42_0_Layer0_3_MEMBER_1_FILL"/>
</g>

<g transform="matrix( 1.95306396484375, 0, 0, 1.95306396484375, -1111.2,-895.25) ">
<use filter="url(#Filter_9)" xlink:href="#Symbol_42_0_Layer0_4_MEMBER_0_FILL"/>
</g>

<g transform="matrix( 1.95306396484375, 0, 0, 1.95306396484375, -1111.2,-895.25) ">
<use filter="url(#Filter_9)" xlink:href="#Symbol_42_0_Layer0_4_MEMBER_1_FILL"/>
</g>

<g transform="matrix( 1.95306396484375, 0, 0, 1.95306396484375, -1111.2,-895.25) ">
<use filter="url(#Filter_9)" xlink:href="#Symbol_42_0_Layer0_5_MEMBER_0_FILL"/>
</g>

<g transform="matrix( 1.95306396484375, 0, 0, 1.95306396484375, -1111.2,-895.25) ">
<use filter="url(#Filter_9)" xlink:href="#Symbol_42_0_Layer0_5_MEMBER_1_FILL"/>
</g>

<g transform="matrix( 1.95306396484375, 0, 0, 1.95306396484375, -1111.2,-895.25) ">
<use filter="url(#Filter_9)" xlink:href="#Symbol_42_0_Layer0_6_MEMBER_0_MEMBER_0_FILL"/>
</g>

<g filter="url(#Filter_17)" transform="matrix( 1, 0, 0, 1, -14.55,-819.3) ">
<g transform="matrix( 1.95306396484375, 0, 0, 1.95306396484375, -1065.3,772.15) ">
<g transform="matrix( 1, 0, 0, 1, 0,0) ">
<use filter="url(#Filter_9)" xlink:href="#FlashAICB_Assets_Layer_1__Group__0_0_Layer0_0_MEMBER_0_FILL"/>
</g>

<g transform="matrix( 1, 0, 0, 1, 0,0) ">
<use filter="url(#Filter_9)" xlink:href="#FlashAICB_Assets_Layer_1__Group__0_0_Layer0_0_MEMBER_1_FILL"/>
</g>

<g transform="matrix( 1, 0, 0, 1, 0,0) ">
<use filter="url(#Filter_9)" xlink:href="#FlashAICB_Assets_Layer_1__Group__0_0_Layer0_0_MEMBER_2_FILL"/>
</g>
</g>
</g>

<g transform="matrix( 1.95306396484375, 0, 0, 1.95306396484375, -1111.2,-895.25) ">
<use filter="url(#Filter_9)" xlink:href="#Symbol_42_0_Layer0_6_MEMBER_1_FILL"/>
</g>

<g transform="matrix( 1.95306396484375, 0, 0, 1.95306396484375, -825.65,-895.25) ">
<use filter="url(#Filter_9)" xlink:href="#Symbol_42_0_Layer0_6_MEMBER_2_FILL"/>
</g>

<g transform="matrix( 1.9529266357421875, 0, 0, 1.9529266357421875, -1110.85,-895.3) ">
<use filter="url(#Filter_9)" xlink:href="#Symbol_42_0_Layer0_7_FILL"/>
</g>
</g>
</g>

<g mask="url(#Mask_Mask_1)">
<g transform="matrix( 1, 0, 0, 1, 319.85,239.1) ">
<g transform="matrix( 1, 0, 0, 1, 0,0) ">
<use xlink:href="#Tween_82_0_Layer0_0_FILL"/>
</g>
</g>
</g>

<g mask="url(#Mask_Mask_1)">
<g transform="matrix( 1, 0, 0, 1, 320.7,349.35) ">
<g transform="matrix( 1, 0, 0, 1, 0,0) ">
<use xlink:href="#Tween_73_0_Layer0_0_1_STROKES"/>
</g>
</g>
</g>

<g mask="url(#Mask_Mask_1)">
<g transform="matrix( 0.999420166015625, -0.0262298583984375, 0.0262298583984375, 0.999420166015625, 574.75,553.25) ">
<g transform="matrix( -3.6094818115234375, -1.2562713623046875, 1.2562713623046875, -3.6094818115234375, 432,671.65) ">
<use xlink:href="#Tween_79_0_Layer0_0_MEMBER_0_1_STROKES" transform="matrix( -0.247100830078125, 0.08599853515625, -0.08599853515625, -0.247100830078125, 164.5,128.8) "/>
</g>

<g transform="matrix( -3.6094818115234375, -1.2562713623046875, 1.2562713623046875, -3.6094818115234375, 3245.85,-5044.5) ">
<use xlink:href="#Tween_79_0_Layer0_0_MEMBER_1_FILL"/>
</g>
</g>
</g>

<g mask="url(#Mask_Mask_1)">
<g transform="matrix( 0.99920654296875, 0.0308074951171875, -0.0308074951171875, 0.99920654296875, 64.55,566.85) ">
<g transform="matrix( 1.7047576904296875, 3.4193115234375, 3.4193115234375, -1.7047576904296875, 4785.7,-3477.6) ">
<use xlink:href="#Tween_77_0_Layer0_0_MEMBER_0_1_STROKES" transform="matrix( 0.1167755126953125, 0.234222412109375, 0.234222412109375, -0.1167755126953125, 255.65,-1527.05) "/>
</g>

<g transform="matrix( 1.7047576904296875, 3.4193115234375, 3.4193115234375, -1.7047576904296875, 4785.7,-3477.6) ">
<use xlink:href="#Tween_77_0_Layer0_0_MEMBER_1_FILL"/>
</g>
</g>
</g>
</g>
</svg>
