<svg id="cb981d89-c02b-4e9d-904c-f007a4ad4b54" data-name="Слой 1" xmlns="http://www.w3.org/2000/svg" viewBox="0 0 578.19 335.31"><title>civil-win</title><rect x="199.36" y="143.43" width="53" height="63.67" rx="14" ry="14" style="fill:#fff"/><rect x="199.36" y="143.43" width="53" height="63.67" rx="14" ry="14" style="fill:none;stroke:#000;stroke-miterlimit:10;stroke-width:6px"/><path d="M239.77,67.19a26.13,26.13,0,0,0-26.13,26.13h0a9.81,9.81,0,0,0,0,19.62v57.93H265.9V93.32A26.13,26.13,0,0,0,239.77,67.19Z" style="fill:#fff"/><path d="M239.77,67.19a26.13,26.13,0,0,0-26.13,26.13h0a9.81,9.81,0,0,0,0,19.62v57.93H265.9V93.32A26.13,26.13,0,0,0,239.77,67.19Z" style="fill:none;stroke:#000;stroke-miterlimit:10;stroke-width:6px"/><polyline points="266.75 156.18 294.73 142.3 320.53 84.92" style="fill:none;stroke:#000;stroke-linecap:round;stroke-linejoin:round;stroke-width:6px"/><path d="M266.36,128.43s-10.91,13.25-28,0" style="fill:none;stroke:#000;stroke-linecap:round;stroke-miterlimit:10;stroke-width:6px"/><rect x="213.25" y="156.9" width="53" height="88" style="fill:#858485;stroke:#000;stroke-miterlimit:10;stroke-width:6px"/><circle cx="320.53" cy="84.92" r="6.02"/><line x1="266.25" y1="203.9" x2="266.25" y2="285.9" style="fill:#fff;stroke:#000;stroke-linecap:round;stroke-miterlimit:10;stroke-width:6px"/><line x1="213.25" y1="203.9" x2="213.25" y2="285.9" style="fill:#fff;stroke:#000;stroke-linecap:round;stroke-miterlimit:10;stroke-width:6px"/><polyline points="212.36 156.43 180.54 168.01 151.02 201.71" style="fill:none;stroke:#000;stroke-linecap:round;stroke-linejoin:round;stroke-width:6px"/><path d="M211.85,285.69c0,3.05,4.81,5.52,10.75,5.52s10.75,2.19,10.75-5.52c0-3.05-4.8-.5-10.75-5.52C211.85,271.09,211.85,282.64,211.85,285.69Z" style="fill:#fff;stroke:#000;stroke-miterlimit:10;stroke-width:6px"/><path d="M264.28,285.69c0,3.05,4.81,5.52,10.75,5.52s10.75,2.19,10.75-5.52c0-3.05-4.8-.5-10.75-5.52C264.28,271.09,264.28,282.64,264.28,285.69Z" style="fill:#fff;stroke:#000;stroke-miterlimit:10;stroke-width:6px"/><circle cx="151.02" cy="201.71" r="6.02"/><circle cx="244.91" cy="104.1" r="4.2"/><circle cx="259.6" cy="104.1" r="4.15"/><rect x="171.99" y="289.69" width="149.48" height="9.74" rx="4" ry="4" style="fill:#fff"/><rect x="171.99" y="289.69" width="149.48" height="9.74" rx="4" ry="4" style="fill:none;stroke:#000;stroke-miterlimit:10;stroke-width:6px"/><circle cx="189.04" cy="307.93" r="8.5" style="fill:#858485;stroke:#000;stroke-miterlimit:10;stroke-width:6px"/><circle cx="303.23" cy="307.93" r="8.5" style="fill:#858485;stroke:#000;stroke-miterlimit:10;stroke-width:6px"/><path d="M475.18,332.31s47.88-14.41,69.79-70.1" style="fill:none;stroke:#000;stroke-linecap:round;stroke-linejoin:round;stroke-width:6px"/><path d="M389.78,78.94a26.13,26.13,0,0,0-26.13,26.13v5.22a9.81,9.81,0,0,0,0,19.62v58H415.9V105.06A26.13,26.13,0,0,0,389.78,78.94Z" style="fill:#fff"/><path d="M389.78,78.94a26.13,26.13,0,0,0-26.13,26.13v5.22a9.81,9.81,0,0,0,0,19.62v58H415.9V105.06A26.13,26.13,0,0,0,389.78,78.94Z" style="fill:none;stroke:#000;stroke-miterlimit:10;stroke-width:6px"/><polyline points="415.36 173.43 438.51 125.95 444.53 59.92" style="fill:none;stroke:#000;stroke-linecap:round;stroke-linejoin:round;stroke-width:6px"/><path d="M377.11,147.9h39.14v13.4c-5,0-15.6.29-19.57.24C387,161.41,377.11,156.9,377.11,147.9Z" style="fill:#fff;stroke:#000;stroke-miterlimit:10;stroke-width:6px"/><rect x="362.25" y="173.9" width="54" height="82" style="fill:#858485;stroke:#000;stroke-miterlimit:10;stroke-width:6px"/><circle cx="444.53" cy="59.92" r="6.02"/><line x1="416.36" y1="255.43" x2="447.68" y2="298.81" style="fill:#fff;stroke:#000;stroke-linecap:round;stroke-miterlimit:10;stroke-width:6px"/><line x1="362.36" y1="255.43" x2="354.84" y2="310.43" style="fill:#fff;stroke:#000;stroke-linecap:round;stroke-miterlimit:10;stroke-width:6px"/><polyline points="363.64 172.35 335.64 193.9 321.02 230.71" style="fill:none;stroke:#000;stroke-linecap:round;stroke-linejoin:round;stroke-width:6px"/><path d="M356.35,310.69c0,3.05-4.81,5.52-10.75,5.52s-10.75,2.19-10.75-5.52c0-3.05,4.8-.5,10.75-5.52C356.35,296.09,356.35,307.64,356.35,310.69Z"/><path d="M445.72,299.58c.75,3,6,4.16,11.78,2.69s11-.54,9-8c-.75-3-4.77.71-11.78-2.69C442.11,285.43,445,296.62,445.72,299.58Z"/><circle cx="321.02" cy="230.71" r="6.02"/><circle cx="385.76" cy="108.1" r="9.81" style="fill:#fff;stroke:#000;stroke-miterlimit:10;stroke-width:6px"/><circle cx="415.9" cy="108.1" r="9.81" style="fill:#fff;stroke:#000;stroke-miterlimit:10;stroke-width:6px"/><path d="M417,7.87c7.29,7.29,1.82,24.58-12.21,38.61S373.43,66,366.14,58.7s-7.4-30.16,6.63-44.2S409.68.58,417,7.87Z" style="fill:#858485;stroke:#000;stroke-miterlimit:10;stroke-width:6px"/><line x1="391.77" y1="147.43" x2="391.77" y2="161.3" style="fill:#858485;stroke:#000;stroke-miterlimit:10;stroke-width:6px"/><line x1="406.09" y1="147.43" x2="406.09" y2="161.3" style="fill:#858485;stroke:#000;stroke-miterlimit:10;stroke-width:6px"/><circle cx="538.36" cy="283.53" r="22.32" transform="translate(-28.29 61.87) rotate(-6.41)" style="fill:#fff;stroke:#000;stroke-miterlimit:10;stroke-width:6px"/><path d="M575.14,265.19a8.12,8.12,0,0,0-10.75-6.78,10.65,10.65,0,1,0-17.33,12.34,9.65,9.65,0,1,0,18.12,3.43c0-.06,0-.12,0-.18a8.12,8.12,0,0,0,10-8.81Z" style="fill:#fff"/><path d="M575.14,265.19a8.12,8.12,0,0,0-10.75-6.78,10.65,10.65,0,1,0-17.33,12.34,9.65,9.65,0,1,0,18.12,3.43c0-.06,0-.12,0-.18a8.12,8.12,0,0,0,10-8.81Z" style="fill:none;stroke:#000;stroke-miterlimit:10;stroke-width:6px"/><line x1="506.84" y1="270.39" x2="517.68" y2="275.14" style="fill:#fff;stroke:#000;stroke-miterlimit:10;stroke-width:6px"/><circle cx="506.84" cy="270.39" r="6.52" transform="translate(-27.02 58.27) rotate(-6.41)" style="fill:#fff;stroke:#000;stroke-miterlimit:10;stroke-width:6px"/><path d="M527.54,303c-1.64,2.05-4.48,14.85-4.48,14.85" style="fill:#fff;stroke:#000;stroke-linecap:round;stroke-linejoin:round;stroke-width:6px"/><path d="M553.4,300.14c-1.64,2.05-4.48,14.85-4.48,14.85" style="fill:#fff;stroke:#000;stroke-linecap:round;stroke-linejoin:round;stroke-width:6px"/><line x1="372.77" y1="14.5" x2="361.27" y2="3" style="fill:#858485;stroke:#000;stroke-miterlimit:10;stroke-width:6px"/><path d="M74.77,79.12a26.13,26.13,0,0,0-26.13,26.13h0v15a9.81,9.81,0,0,0,0,19.62v58H100.9V105.25A26.13,26.13,0,0,0,74.77,79.12Z" style="fill:#fff"/><path d="M74.77,79.12a26.13,26.13,0,0,0-26.13,26.13h0v15a9.81,9.81,0,0,0,0,19.62v58H100.9V105.25A26.13,26.13,0,0,0,74.77,79.12Z" style="fill:none;stroke:#000;stroke-miterlimit:10;stroke-width:6px"/><polyline points="92.75 191.11 127.54 167.51 144.53 102.84" style="fill:none;stroke:#000;stroke-linecap:round;stroke-linejoin:round;stroke-width:6px"/><path d="M99.9,162.43s-15.54,7-37.79-2.33C78.36,155.43,101.36,145.47,99.9,162.43Z" style="fill:#858485;stroke:#000;stroke-miterlimit:10;stroke-width:6px"/><rect x="48.25" y="183.9" width="53" height="88" style="fill:#858485;stroke:#000;stroke-miterlimit:10;stroke-width:6px"/><circle cx="144.53" cy="102.84" r="6.02"/><line x1="101.25" y1="271.9" x2="101.25" y2="312.9" style="fill:#fff;stroke:#000;stroke-linecap:round;stroke-miterlimit:10;stroke-width:6px"/><line x1="48.25" y1="271.9" x2="48.25" y2="312.9" style="fill:#fff;stroke:#000;stroke-linecap:round;stroke-miterlimit:10;stroke-width:6px"/><polyline points="48.65 182.28 17.54 156.75 6.02 85.64" style="fill:none;stroke:#000;stroke-linecap:round;stroke-linejoin:round;stroke-width:6px"/><path d="M46.85,312.61c0,3.05,4.81,5.52,10.75,5.52s10.75,2.19,10.75-5.52c0-3.05-4.8-.5-10.75-5.52C46.85,298,46.85,309.56,46.85,312.61Z"/><path d="M99.28,312.61c0,3.05,4.81,5.52,10.75,5.52s10.75,2.19,10.75-5.52c0-3.05-4.8-.5-10.75-5.52C99.28,298,99.28,309.56,99.28,312.61Z"/><circle cx="6.02" cy="85.64" r="6.02"/><circle cx="70.76" cy="130.02" r="9.81" style="fill:#fff;stroke:#000;stroke-miterlimit:10;stroke-width:6px"/><path d="M154.37,95.82a9.45,9.45,0,0,1-9.56,9.64,9.75,9.75,0,0,1-9.56-10V1.9" style="fill:none;stroke:#000;stroke-miterlimit:10;stroke-width:6px"/><circle cx="100.9" cy="130.02" r="9.81" style="fill:#fff;stroke:#000;stroke-miterlimit:10;stroke-width:6px"/></svg>