<svg id="3dff0320-d49f-4ef9-b388-e70ca2e608dc" data-name="Слой 1" xmlns="http://www.w3.org/2000/svg" viewBox="0 0 518.55135 320.25997">
  <title>civil-killed</title>
  <g>
    <path d="M7.29839,181.508,4.03431,197.82836l9.79223,3.26408s-19.58447,32.64078,0,52.22524c24.27658-24.27658,38.35291-43.249,38.35291-43.249S148.46975,187.2201,163.1581,183.956s58.40211-18.02224,89.53567-15.50437c29.84183,2.4134,74.07623-6.52816,83.46045-4.0801s30.055,10.28437,47.73714,7.181c19.99248-3.50888,57.98132-12.37185,72.62573-3.91689s22.84854,25.2966,19.99248,37.9449-5.02938,22.39908-13.87233,23.25655-24.48058-1.632-31.00874-1.632-10.415,2.24405-6.52816,4.48811,11.01626,6.52816,11.01626,6.52816-15.024,12.07009-17.23954,15.09636c-5.30282,7.24331,8.81656,16.54392,22.54367,18.23813s19.93354-.57681,27.28508-12.65176c6.53956-10.74125,17.29606-5.60076,25.45625-8.66083s16.74693-15.34662,19.70651-26.6018,1.28416-34.18425-15.56605-51.03447-30.12137-33.28065-21.55316-37.28429c7.76258-3.62719,41.3772,2.4518,26.205-19.90495C492.123,99.45732,474.46951,99.498,460.18917,99.498s-26.26876,6.39059-33.12686-10.881-12.8645-1.2798-12.8645-41.67276c0-19.99248-6.04257-15.83857-6.04257-20.40331s10.925-7.41545,7.15285-13.949-8.5682-10.60289-19.17646-8.5682S378.17922,11.77592,382.66733,16.264a62.61549,62.61549,0,0,1,8.28757,11.069l-6.20554,3.58277V75.42544c0,11.11148-1.538,16.8644-46.9631,23.25655-73.71376,0-86.09005-47.32913-116.28277-47.32913-17.13641,0-96.6983,49.77719-96.6983,49.77719l-.816,8.5682S102.36465,100.314,92.98043,100.314s-8.77221,1.836,4.48811,15.09636,31.00874,13.26032,31.00874,13.26032l3.67209,8.85561,21.62452,5.22073,5.30413-7.75218,61.20146-52.22524c3.26408-3.26408,7.95619,3.46808,15.50437,11.01626s22.66694,23.70083,25.23721,28.15267-5.65274,8.16019-10.14085,8.16019-77.92986,21.62452-106.89855,25.70461S26.88285,178.6519,26.88285,178.6519Z" style="fill: none;stroke: #9f9f9f;stroke-miterlimit: 10;stroke-width: 6.99363684654236px"/>
    <g>
      <line x1="187.1177" y1="229.42894" x2="187.1177" y2="281.23762" style="fill: #969696;stroke: #991c00;stroke-linecap: round;stroke-miterlimit: 10;stroke-width: 16px"/>
      <line x1="168.45238" y1="229.42894" x2="168.45238" y2="259.62418" style="fill: #969696;stroke: #991c00;stroke-linecap: round;stroke-miterlimit: 10;stroke-width: 16px"/>
      <line x1="148.91625" y1="161.66997" x2="148.91625" y2="276.23762" style="fill: #969696;stroke: #991c00;stroke-linecap: round;stroke-miterlimit: 10;stroke-width: 16px"/>
      <line x1="305.26691" y1="229.42894" x2="305.26691" y2="270.83328" style="fill: #969696;stroke: #991c00;stroke-linecap: round;stroke-miterlimit: 10;stroke-width: 16px"/>
      <line x1="249.02925" y1="238.42894" x2="249.02925" y2="312.25997" style="fill: #969696;stroke: #991c00;stroke-linecap: round;stroke-miterlimit: 10;stroke-width: 16px"/>
      <line x1="323.83389" y1="229.42894" x2="323.83389" y2="295.20395" style="fill: #969696;stroke: #991c00;stroke-linecap: round;stroke-miterlimit: 10;stroke-width: 16px"/>
      <line x1="356.60477" y1="161.68887" x2="356.60477" y2="238.42894" style="fill: #969696;stroke: #991c00;stroke-linecap: round;stroke-miterlimit: 10;stroke-width: 16px"/>
      <circle cx="250.76051" cy="154.04145" r="105.84426" style="fill: #991c00;stroke: #000;stroke-miterlimit: 10;stroke-width: 20px"/>
      <g>
        <path d="M243.22712,43.005a26.12955,26.12955,0,0,0-26.12952,26.12952l.00018.00726v14.954a9.8121,9.8121,0,1,0,0,19.62421v57.96881H269.3567V69.13454A26.12956,26.12956,0,0,0,243.22712,43.005Z" style="fill: #fff"/>
        <path d="M243.22712,43.005a26.12955,26.12955,0,0,0-26.12952,26.12952l.00018.00726v14.954a9.8121,9.8121,0,1,0,0,19.62421v57.96881H269.3567V69.13454A26.12956,26.12956,0,0,0,243.22712,43.005Z" style="fill: none;stroke: #000;stroke-miterlimit: 10;stroke-width: 6px"/>
      </g>
      <g>
        <polyline points="261.198 154.994 289.233 184.542 332.986 177.728" style="fill: none;stroke: #000;stroke-linecap: round;stroke-linejoin: round;stroke-width: 6px"/>
        <path d="M269.35668,126.70942H230.56329C230.56329,115.70942,269.35668,108.70942,269.35668,126.70942Z" style="fill: #858485;stroke: #000;stroke-miterlimit: 10;stroke-width: 6px"/>
        <rect x="216.00955" y="147.70942" width="52" height="88" style="fill: #858485;stroke: #000;stroke-miterlimit: 10;stroke-width: 6px"/>
        <circle cx="332.98653" cy="177.7285" r="6.01947"/>
        <line x1="268.00955" y1="235.70942" x2="268.00955" y2="276.70942" style="fill: #fff;stroke: #000;stroke-miterlimit: 10;stroke-width: 6px"/>
        <line x1="216.00955" y1="235.70942" x2="216.00955" y2="276.70942" style="fill: #fff;stroke: #000;stroke-miterlimit: 10;stroke-width: 6px"/>
        <polyline points="217.098 146.167 189.097 167.708 174.472 204.523" style="fill: none;stroke: #000;stroke-linecap: round;stroke-linejoin: round;stroke-width: 6px"/>
        <path d="M214.30507,276.50035c0,3.05025,4.81263,5.523,10.74931,5.523s10.74931,2.19258,10.74931-5.523c0-3.05026-4.79684-.49663-10.74931-5.523C214.30507,261.90051,214.30507,273.45009,214.30507,276.50035Z"/>
        <path d="M265.72968,276.50035c0,3.05025,4.81263,5.523,10.74931,5.523s10.74931,2.19258,10.74931-5.523c0-3.05026-4.79684-.49663-10.74931-5.523C265.72968,261.90051,265.72968,273.45009,265.72968,276.50035Z"/>
        <circle cx="174.47185" cy="204.52256" r="6.01947"/>
      </g>
      <circle cx="239.21715" cy="93.90794" r="9.8121" style="fill: #fff;stroke: #000;stroke-miterlimit: 10;stroke-width: 6px"/>
      <path d="M322.77981,187.51154a9.61693,9.61693,0,1,1,19.22974.07752v94.12037" style="fill: none;stroke: #000;stroke-miterlimit: 10;stroke-width: 6px"/>
      <circle cx="269.35652" cy="93.90794" r="9.8121" style="fill: #fff;stroke: #000;stroke-miterlimit: 10;stroke-width: 6px"/>
    </g>
  </g>
</svg>
