<svg id="0a1064ac-cb91-4f4b-8b16-4b8b49dc6dae" data-name="Слой 1" xmlns="http://www.w3.org/2000/svg" viewBox="0 0 516.4425 271.65095">
  <title>mafia-win</title>
  <g>
    <g>
      <line x1="114.71869" y1="119.01871" x2="62.58891" y2="119.01871" style="fill: #fff;stroke: #000;stroke-miterlimit: 10;stroke-width: 5.23235464096069px"/>
      <rect x="62.58891" y="47.54476" width="52.12978" height="103.78185" style="fill: #fff;stroke: #000;stroke-miterlimit: 10;stroke-width: 5.23235464096069px"/>
      <polyline points="114.719 159.752 114.719 117.82 76.021 117.82 76.021 134.645" style="fill: #fff;stroke: #000;stroke-miterlimit: 10;stroke-width: 5.23235464096069px"/>
      <rect x="62.58891" y="135.84354" width="52.12978" height="88.05767" style="stroke: #000;stroke-miterlimit: 10;stroke-width: 5.23235464096069px"/>
      <g>
        <path d="M62.58891,53.85628h52.12978V26.35692c0-13.51869-7.05548-14.39233-13.13963-14.39233-7.14536,0-6.8289,5.38906-12.92511,5.38182-5.06517-.006-7.45954-5.38182-12.30924-5.38182-6.76385,0-13.7558.44011-13.7558,17.68112Z"/>
        <ellipse cx="88.6538" cy="51.17838" rx="52.39514" ry="18.26795"/>
      </g>
      <ellipse cx="114.71869" cy="80.82206" rx="9.10471" ry="14.86937"/>
      <ellipse cx="88.6538" cy="83.71333" rx="9.10471" ry="14.86937"/>
      <line x1="101.81429" y1="119.01871" x2="101.81429" y2="135.84354" style="fill: #fff;stroke: #000;stroke-miterlimit: 10;stroke-width: 5.23235464096069px"/>
      <line x1="88.69711" y1="119.01871" x2="88.69711" y2="135.84354" style="fill: #fff;stroke: #000;stroke-miterlimit: 10;stroke-width: 5.23235464096069px"/>
      <line x1="114.71869" y1="183.66106" x2="114.71869" y2="265.85438" style="fill: #fff;stroke: #000;stroke-miterlimit: 10;stroke-width: 5.23235464096069px"/>
      <line x1="62.58891" y1="183.66106" x2="62.58891" y2="265.85438" style="fill: #fff;stroke: #000;stroke-miterlimit: 10;stroke-width: 5.23235464096069px"/>
      <polyline points="62.589 135.844 20.324 124.591 6.005 66.004" style="fill: none;stroke: #000;stroke-linecap: round;stroke-linejoin: round;stroke-width: 5.23235464096069px"/>
      <polyline points="167.399 94.216 139.876 135.844 114.719 142.962" style="fill: none;stroke: #000;stroke-linecap: round;stroke-linejoin: round;stroke-width: 5.23235464096069px"/>
      <path d="M59.80311,265.85439c0,3.04272,4.80074,5.50933,10.72275,5.50933s10.72275,2.18717,10.72275-5.50933c0-3.04272-4.785-.4954-10.72275-5.50933C59.80311,251.29063,59.80311,262.81168,59.80311,265.85439Z"/>
      <path d="M113.10065,265.85439c0,3.04272,4.80074,5.50933,10.72275,5.50933s10.72275,2.18717,10.72275-5.50933c0-3.04272-4.785-.4954-10.72275-5.50933C113.10065,251.29063,113.10065,262.81168,113.10065,265.85439Z"/>
      <circle cx="6.0046" cy="66.00354" r="6.0046"/>
      <circle cx="167.39875" cy="94.21548" r="6.0046"/>
    </g>
    <g>
      <g>
        <line x1="457.75785" y1="119.01871" x2="405.62806" y2="119.01871" style="fill: #fff;stroke: #000;stroke-miterlimit: 10;stroke-width: 5.23235464096069px"/>
        <rect x="396.99709" y="59.99896" width="59.3167" height="91.32765" style="fill: #fff;stroke: #000;stroke-miterlimit: 10;stroke-width: 5.23235464096069px"/>
        <rect x="396.99709" y="135.84354" width="59.3167" height="88.05767" style="stroke: #000;stroke-miterlimit: 10;stroke-width: 5.23235464096069px"/>
        <g>
          <path d="M400.59055,66.03072h52.12978V34.84027c0-15.33323-7.05548-16.32413-13.13963-16.32413-7.14536,0-6.8289,6.11241-12.92511,6.10419-5.06517-.00683-7.45954-6.10419-12.30924-6.10419-6.76385,0-13.7558.49918-13.7558,20.05436Z"/>
          <ellipse cx="426.65544" cy="62.99338" rx="52.39514" ry="20.71996"/>
        </g>
        <g>
          <ellipse cx="436.53643" cy="83.71333" rx="9.10471" ry="14.86937"/>
          <ellipse cx="405.248" cy="83.71333" rx="9.10471" ry="14.86937"/>
        </g>
        <g>
          <polygon points="454.272 135.844 454.272 117.82 399.039 117.82 399.039 134.645 454.272 135.844" style="fill: #fff;stroke: #000;stroke-miterlimit: 10;stroke-width: 5.23235464096069px"/>
          <line x1="432.22137" y1="119.01871" x2="432.22137" y2="135.84354" style="fill: #fff;stroke: #000;stroke-miterlimit: 10;stroke-width: 5.23235464096069px"/>
          <line x1="443.51927" y1="119.01871" x2="443.51927" y2="135.84354" style="fill: #fff;stroke: #000;stroke-miterlimit: 10;stroke-width: 5.23235464096069px"/>
          <line x1="420.89221" y1="119.01871" x2="420.89221" y2="135.84354" style="fill: #fff;stroke: #000;stroke-miterlimit: 10;stroke-width: 5.23235464096069px"/>
          <line x1="410.12335" y1="119.01871" x2="410.12335" y2="135.84354" style="fill: #fff;stroke: #000;stroke-miterlimit: 10;stroke-width: 5.23235464096069px"/>
        </g>
        <line x1="456.27177" y1="223.90121" x2="456.27177" y2="265.85438" style="fill: #fff;stroke: #000;stroke-miterlimit: 10;stroke-width: 5.23235464096069px"/>
        <line x1="397.35371" y1="223.90121" x2="397.35371" y2="265.85438" style="fill: #fff;stroke: #000;stroke-miterlimit: 10;stroke-width: 5.23235464096069px"/>
        <polyline points="399.482 138.786 376.552 163.606 344.508 169.611" style="fill: none;stroke: #000;stroke-linecap: round;stroke-linejoin: round;stroke-width: 5.23235464096069px"/>
        <polyline points="510.438 94.216 482.916 135.844 457.758 142.962" style="fill: none;stroke: #000;stroke-linecap: round;stroke-linejoin: round;stroke-width: 5.23235464096069px"/>
        <path d="M400.13951,265.85439c0,3.04272-4.80074,5.50933-10.72275,5.50933s-10.72275,2.18717-10.72275-5.50933c0-3.04272,4.785-.4954,10.72275-5.50933C400.13951,251.29063,400.13951,262.81168,400.13951,265.85439Z"/>
        <path d="M454.65373,265.85439c0,3.04272,4.80074,5.50933,10.72275,5.50933s10.72275,2.18717,10.72275-5.50933c0-3.04272-4.785-.4954-10.72275-5.50933C454.65373,251.29063,454.65373,262.81168,454.65373,265.85439Z"/>
        <circle cx="344.50764" cy="169.61096" r="6.0046"/>
        <circle cx="510.43791" cy="94.21548" r="6.0046"/>
        <rect x="308.04859" y="178.77026" width="75.44303" height="55.27335"/>
        <circle cx="344.77011" cy="184.04034" r="14.57214" style="fill: none;stroke: #000;stroke-linecap: round;stroke-linejoin: round;stroke-width: 5.23235464096069px"/>
      </g>
      <text transform="translate(333.16797 223.89984)" style="font-size: 40.44535827636719px;fill: #767678;font-family: Roboto-Bold, Roboto;font-weight: 700">$</text>
    </g>
    <g>
      <line x1="228.65506" y1="119.01871" x2="280.78484" y2="119.01871" style="fill: #fff;stroke: #000;stroke-miterlimit: 10;stroke-width: 5.23235464096069px"/>
      <rect x="228.65506" y="40.54476" width="52.12978" height="110.78185" style="fill: #fff;stroke: #000;stroke-miterlimit: 10;stroke-width: 5.23235464096069px"/>
      <polyline points="228.655 159.752 228.655 117.82 267.353 117.82 267.353 134.645" style="fill: #fff;stroke: #000;stroke-miterlimit: 10;stroke-width: 5.23235464096069px"/>
      <rect x="228.65506" y="135.84354" width="52.12978" height="88.05767" style="stroke: #000;stroke-miterlimit: 10;stroke-width: 5.23235464096069px"/>
      <g>
        <path d="M280.78484,46.85628H228.65506V19.35692c0-13.51869,7.05548-14.39233,13.13963-14.39233,7.14536,0,6.8289,5.38906,12.92511,5.38182,5.06517-.006,7.45954-5.38182,12.30924-5.38182,6.76385,0,13.7558.44011,13.7558,17.68112Z"/>
        <ellipse cx="254.71995" cy="44.17838" rx="52.39514" ry="18.26795"/>
      </g>
      <ellipse cx="228.65506" cy="73.82206" rx="9.10471" ry="14.86937"/>
      <ellipse cx="254.71995" cy="76.71333" rx="9.10471" ry="14.86937"/>
      <line x1="241.55945" y1="119.01871" x2="241.55945" y2="135.84354" style="fill: #fff;stroke: #000;stroke-miterlimit: 10;stroke-width: 5.23235464096069px"/>
      <line x1="254.67664" y1="119.01871" x2="254.67664" y2="135.84354" style="fill: #fff;stroke: #000;stroke-miterlimit: 10;stroke-width: 5.23235464096069px"/>
      <line x1="280.78484" y1="183.66106" x2="280.78484" y2="265.85438" style="fill: #fff;stroke: #000;stroke-miterlimit: 10;stroke-width: 5.23235464096069px"/>
      <line x1="228.65506" y1="183.66106" x2="228.65506" y2="265.85438" style="fill: #fff;stroke: #000;stroke-miterlimit: 10;stroke-width: 5.23235464096069px"/>
      <polyline points="228.655 135.844 194.543 135.844 167.765 95.691" style="fill: none;stroke: #000;stroke-linecap: round;stroke-linejoin: round;stroke-width: 5.23235464096069px"/>
      <polyline points="338.77 45.487 311.588 99.741 280.785 135.844" style="fill: none;stroke: #000;stroke-linecap: round;stroke-linejoin: round;stroke-width: 5.23235464096069px"/>
      <path d="M225.86926,265.85439c0,3.04272,4.80074,5.50933,10.72275,5.50933s10.72275,2.18717,10.72275-5.50933c0-3.04272-4.785-.4954-10.72275-5.50933C225.86926,251.29063,225.86926,262.81168,225.86926,265.85439Z"/>
      <path d="M279.1668,265.85439c0,3.04272,4.80074,5.50933,10.72275,5.50933s10.72275,2.18717,10.72275-5.50933c0-3.04272-4.785-.4954-10.72275-5.50933C279.1668,251.29063,279.1668,262.81168,279.1668,265.85439Z"/>
      <circle cx="343.23635" cy="41.02091" r="9.07652" transform="translate(71.52543 254.7195) rotate(-45)"/>
      <circle cx="167.76517" cy="95.69142" r="6.0046"/>
      <polygon points="347.928 29.794 342.647 24.512 334.594 34.887 339.873 40.166 347.928 29.794"/>
      <line x1="333.63567" y1="33.52328" x2="357.78664" y2="4.79757" style="fill: none;stroke: #000;stroke-linecap: round;stroke-linejoin: round;stroke-width: 5.23235464096069px"/>
      <line x1="347.59166" y1="53.10696" x2="336.03916" y2="34.72502" style="fill: none;stroke: #000;stroke-linecap: round;stroke-linejoin: round;stroke-width: 10px"/>
      <polygon points="358.707 22.182 349.374 13.21 333.561 31.345 342.891 40.315 358.707 22.182"/>
      <line x1="332.0914" y1="32.78018" x2="328.08576" y2="32.82166" style="fill: none;stroke: #000;stroke-linecap: round;stroke-linejoin: round;stroke-width: 5.23235464096069px"/>
      <line x1="356.82524" y1="5.87914" x2="353.66409" y2="2.61618" style="fill: none;stroke: #000;stroke-linecap: round;stroke-linejoin: round;stroke-width: 5.23235464096069px"/>
    </g>
  </g>
</svg>
