<?xml version="1.0" encoding="utf-8"?>
<!-- Generator: Adobe Illustrator 20.1.0, SVG Export Plug-In . SVG Version: 6.00 Build 0)  -->
<svg version="1.1" baseProfile="basic" id="Слой_1"
	 xmlns="http://www.w3.org/2000/svg" xmlns:xlink="http://www.w3.org/1999/xlink" x="0px" y="0px" viewBox="0 0 50 50"
	 xml:space="preserve">
<style type="text/css">
	.st0{fill:#822208;}
	.st1{fill:#D8D8D8;}
</style>
<g>
	<circle class="st0" cx="25" cy="25" r="25"/>
	<g>
		<path class="st1" d="M21.7,31c0-1.7,0.3-3,0.8-3.8c0.5-0.8,1.5-1.8,3-2.9c0.9-0.7,1.6-1.5,2.1-2.3c0.5-0.8,0.8-1.8,0.8-2.8
			c0-1.1-0.3-2-0.9-2.7c-0.6-0.6-1.5-1-2.6-1c-0.9,0-1.7,0.3-2.3,0.8c-0.6,0.5-1,1.3-1,2.4h-5.3l0-0.1c0-2.4,0.7-4.2,2.4-5.5
			s3.7-1.9,6.3-1.9c2.8,0,5,0.7,6.5,2.1c1.6,1.4,2.4,3.3,2.4,5.7c0,1.6-0.5,3-1.4,4.4c-0.9,1.3-2.1,2.5-3.5,3.4
			c-0.8,0.6-1.3,1.2-1.5,1.8c-0.2,0.6-0.4,1.4-0.4,2.4H21.7z M27.1,38.7h-5.5v-4.6h5.5V38.7z"/>
	</g>
</g>
</svg>
