<svg id="e6526829-e23d-48a6-9e6b-6f6e68c12dc1" data-name="Слой 1" xmlns="http://www.w3.org/2000/svg" viewBox="0 0 217.69 255.23"><title>civil-role</title><circle cx="108.84" cy="126.04" r="105.84" fill="#991c00" stroke="#fff" stroke-miterlimit="10" stroke-width="6"/><rect x="64.9" y="79.23" width="53" height="63.67" rx="14" ry="14" fill="#fff"/><rect x="64.9" y="79.23" width="53" height="63.67" rx="14" ry="14" fill="none" stroke="#000" stroke-miterlimit="10" stroke-width="6"/><path d="M105.31,3A26.13,26.13,0,0,0,79.18,29.13h0a9.81,9.81,0,0,0,0,19.62v57.93h52.26V29.13A26.13,26.13,0,0,0,105.31,3Z" fill="#fff"/><path d="M105.31,3A26.13,26.13,0,0,0,79.18,29.13h0a9.81,9.81,0,0,0,0,19.62v57.93h52.26V29.13A26.13,26.13,0,0,0,105.31,3Z" fill="none" stroke="#000" stroke-miterlimit="10" stroke-width="6"/><polyline points="132.28 91.99 152.26 135.5 186.07 151.72" fill="none" stroke="#000" stroke-linecap="round" stroke-linejoin="round" stroke-width="6"/><path d="M131.9,64.23s-10.91,13.25-28,0" fill="none" stroke="#000" stroke-linecap="round" stroke-miterlimit="10" stroke-width="6"/><rect x="78.79" y="92.7" width="53" height="88" fill="#858485" stroke="#000" stroke-miterlimit="10" stroke-width="6"/><circle cx="186.07" cy="151.72" r="6.02"/><line x1="131.79" y1="139.7" x2="131.79" y2="221.7" fill="#fff" stroke="#000" stroke-linecap="round" stroke-miterlimit="10" stroke-width="6"/><line x1="78.79" y1="139.7" x2="78.79" y2="221.7" fill="#fff" stroke="#000" stroke-linecap="round" stroke-miterlimit="10" stroke-width="6"/><polyline points="77.9 92.23 50.76 119.86 36.56 151.52" fill="none" stroke="#000" stroke-linecap="round" stroke-linejoin="round" stroke-width="6"/><path d="M77.39,221.5c0,3.05,4.81,5.52,10.75,5.52s10.75,2.19,10.75-5.52c0-3.05-4.8-.5-10.75-5.52C77.39,206.9,77.39,218.45,77.39,221.5Z" fill="#fff" stroke="#000" stroke-miterlimit="10" stroke-width="6"/><path d="M129.81,221.5c0,3.05,4.81,5.52,10.75,5.52s10.75,2.19,10.75-5.52c0-3.05-4.8-.5-10.75-5.52C129.81,206.9,129.81,218.45,129.81,221.5Z" fill="#fff" stroke="#000" stroke-miterlimit="10" stroke-width="6"/><circle cx="36.56" cy="151.52" r="6.02"/><circle cx="110.44" cy="39.9" r="4.2"/><circle cx="125.13" cy="39.9" r="4.15"/><rect x="37.53" y="225.5" width="149.48" height="9.74" rx="4" ry="4" fill="#fff"/><rect x="37.53" y="225.5" width="149.48" height="9.74" rx="4" ry="4" fill="none" stroke="#000" stroke-miterlimit="10" stroke-width="6"/><circle cx="54.58" cy="243.73" r="8.5" fill="#858485" stroke="#000" stroke-miterlimit="10" stroke-width="6"/><circle cx="168.77" cy="243.73" r="8.5" fill="#858485" stroke="#000" stroke-miterlimit="10" stroke-width="6"/></svg>