<svg id="0c6a63da-eb30-4759-a785-c0fc85ca1334" data-name="Слой 1" xmlns="http://www.w3.org/2000/svg" viewBox="0 0 217.68852 242.30623"><title>civil-role-4</title><circle cx="108.84426" cy="114.03642" r="105.84426" style="fill:#991c00;stroke:#fff;stroke-miterlimit:10;stroke-width:6px"/><path d="M101.311,3A26.12971,26.12971,0,0,0,75.18116,29.12952l.00049.00726v14.954a9.81207,9.81207,0,0,0,0,19.62415v57.96887h52.25879V29.12952A26.1296,26.1296,0,0,0,101.311,3Z" style="fill:#fff"/><path d="M101.311,3A26.12971,26.12971,0,0,0,75.18116,29.12952l.00049.00726v14.954a9.81207,9.81207,0,0,0,0,19.62415v57.96887h52.25879V29.12952A26.1296,26.1296,0,0,0,101.311,3Z" style="fill:none;stroke:#000;stroke-miterlimit:10;stroke-width:6px"/><polyline points="127.944 109.765 165.335 58.061 133.182 19.862" style="fill:none;stroke:#000;stroke-linecap:round;stroke-linejoin:round;stroke-width:6px"/><path d="M127.44043,86.70439H88.647C88.647,75.70439,127.44043,68.70439,127.44043,86.70439Z" style="fill:#858485;stroke:#000;stroke-miterlimit:10;stroke-width:6px"/><rect x="74.79008" y="107.70439" width="53" height="88" style="fill:#858485;stroke:#000;stroke-miterlimit:10;stroke-width:6px"/><circle cx="130.22415" cy="18.18355" r="6.01947" transform="translate(-1.06756 11.01008) rotate(-4.82157)"/><line x1="127.79008" y1="195.70439" x2="127.79008" y2="236.70439" style="fill:#fff;stroke:#000;stroke-linecap:round;stroke-miterlimit:10;stroke-width:6px"/><line x1="74.79008" y1="195.70439" x2="74.79008" y2="236.70439" style="fill:#fff;stroke:#000;stroke-linecap:round;stroke-miterlimit:10;stroke-width:6px"/><polyline points="75.182 106.162 47.18 127.703 32.556 164.518" style="fill:none;stroke:#000;stroke-linecap:round;stroke-linejoin:round;stroke-width:6px"/><path d="M73.38882,236.49531c0,3.05026,4.81263,5.523,10.74931,5.523s10.74931,2.19258,10.74931-5.523c0-3.05025-4.79684-.49663-10.74931-5.523C73.38882,221.89547,73.38882,233.44506,73.38882,236.49531Z"/><path d="M125.81343,236.49531c0,3.05026,4.81263,5.523,10.74931,5.523s10.74931,2.19258,10.74931-5.523c0-3.05025-4.79684-.49663-10.74931-5.523C125.81343,221.89547,125.81343,233.44506,125.81343,236.49531Z"/><circle cx="32.55561" cy="164.51752" r="6.01947"/><circle cx="97.3009" cy="53.90291" r="9.8121" style="fill:#fff;stroke:#000;stroke-miterlimit:10;stroke-width:6px"/><circle cx="127.44027" cy="53.90291" r="9.8121" style="fill:#fff;stroke:#000;stroke-miterlimit:10;stroke-width:6px"/></svg>