<svg id="6be66643-3d96-4745-9ad1-5d965699c4ea" data-name="Слой 1" xmlns="http://www.w3.org/2000/svg" viewBox="0 0 217.68852 242.30627"><title>civil-role-3</title><circle cx="108.84426" cy="114.03645" r="105.84426" style="fill:#991c00;stroke:#fff;stroke-miterlimit:10;stroke-width:6px"/><path d="M101.311,3A26.12972,26.12972,0,0,0,75.18116,29.12958l.00049.00726v14.954a9.8121,9.8121,0,1,0,0,19.62421v57.96881h52.25879V29.12958A26.12961,26.12961,0,0,0,101.311,3Z" style="fill:#fff"/><path d="M101.311,3A26.12972,26.12972,0,0,0,75.18116,29.12958l.00049.00726v14.954a9.8121,9.8121,0,1,0,0,19.62421v57.96881h52.25879V29.12958A26.12961,26.12961,0,0,0,101.311,3Z" style="fill:none;stroke:#000;stroke-miterlimit:10;stroke-width:6px"/><polyline points="119.282 114.989 147.317 144.537 191.07 137.723" style="fill:none;stroke:#000;stroke-linecap:round;stroke-linejoin:round;stroke-width:6px"/><path d="M127.44043,86.70442H88.647C88.647,75.70442,127.44043,68.70442,127.44043,86.70442Z" style="fill:#858485;stroke:#000;stroke-miterlimit:10;stroke-width:6px"/><rect x="74.79008" y="107.70442" width="53" height="88" style="fill:#858485;stroke:#000;stroke-miterlimit:10;stroke-width:6px"/><circle cx="191.07028" cy="137.7235" r="6.01947"/><line x1="127.79008" y1="195.70442" x2="127.79008" y2="236.70442" style="fill:#fff;stroke:#000;stroke-linecap:round;stroke-miterlimit:10;stroke-width:6px"/><line x1="74.79008" y1="195.70442" x2="74.79008" y2="236.70442" style="fill:#fff;stroke:#000;stroke-linecap:round;stroke-miterlimit:10;stroke-width:6px"/><polyline points="75.182 106.162 47.18 127.703 32.556 164.518" style="fill:none;stroke:#000;stroke-linecap:round;stroke-linejoin:round;stroke-width:6px"/><path d="M73.38882,236.49535c0,3.05026,4.81263,5.523,10.74931,5.523s10.74931,2.19258,10.74931-5.523c0-3.05025-4.79684-.49663-10.74931-5.523C73.38882,221.89551,73.38882,233.44509,73.38882,236.49535Z"/><path d="M125.81343,236.49535c0,3.05026,4.81263,5.523,10.74931,5.523s10.74931,2.19258,10.74931-5.523c0-3.05025-4.79684-.49663-10.74931-5.523C125.81343,221.89551,125.81343,233.44509,125.81343,236.49535Z"/><circle cx="32.55561" cy="164.51756" r="6.01947"/><circle cx="97.3009" cy="53.90294" r="9.8121" style="fill:#fff;stroke:#000;stroke-miterlimit:10;stroke-width:6px"/><path d="M180.712,147.50654a9.54294,9.54294,0,1,1,19.07813.07752v94.12037" style="fill:none;stroke:#000;stroke-miterlimit:10;stroke-width:6px"/><circle cx="127.44027" cy="53.90294" r="9.8121" style="fill:#fff;stroke:#000;stroke-miterlimit:10;stroke-width:6px"/></svg>