<svg id="ec91b4e0-c7d2-4ddf-a26b-f4d42ecda579" data-name="Ğ¡Ğ»Ğ¾Ğ¹ 1" xmlns="http://www.w3.org/2000/svg" viewBox="0 0 110.6621 57.16715"><title>gun</title><path d="M33.29788,6.35191H31.33772V4.78874a2.1543,2.1543,0,0,0-1.86091,2.382c0,2.23309-.96767,3.64738-2.67971,3.64738S24.19522,9.27194,22.407,9.27194s-2.38366.87623-2.38366,1.54615.96767,0,1.78647,0c.687,0,1.68838,1.834,4.85067,2.42447.60674.11329.95537,1.44623.95537,3.08383,0,.52105-2.15866.37218-3.2752,1.48873a11.76153,11.76153,0,0,0-1.7253,2.17094s5.37269,2.51855,9.69-3.36192S34.53849,6.27747,34.53849,6.27747Z" style="fill:#999"/><path d="M109.66962,12.30682H79.79581c-4.56543,0-5.35942,4.46618-5.35942,4.46618H71.85593c-2.58046,0-3.6722,4.36694-3.6722,4.36694a7.2194,7.2194,0,0,0-2.19583-.221,4.54312,4.54312,0,0,1-1.56619,3.63563,4.10171,4.10171,0,0,1-2.78839.84783s-1.4391,1.89094-2.82858,1.89094H49.62426c-2.97746,0,0,4.21485,0,6.39831s-1.191,8.38972-10.32185,8.38972c-10.81809,0-10.48936-6.70949-11.31433-8.13838s-1.91457-1.79039-5.35942.1985-5.26017,7.24514-5.26017,11.81057,2.08422,11.21508,2.08422,11.21508H9.62711C.49624,57.16715,0,56.57166,0,56.57166S3.87069,43.17311,4.95069,37.68107s5.76815-9.99073,7.65387-11.87645a19.36329,19.36329,0,0,0,3.2752-5.06167c.35046-.607.69474-2.87821,2.48121-2.87821,2.58046,0,7.41446,2.12433,10.89188-1.10312,2.88895-2.68128,4.045-4.2563,4.045-7.82925V2.63009l1.24061-1.24061h1.985V2.382H58.69672l1.54713.89324H98.95078l.99249-.99249h1.68722V0l4.06919.89324V2.18347h1.191l3.77144,3.176v5.75641ZM39.07854,28.58357c-7.74195.71955-9.00624,3.3-9.00624,5.83085,0,1.04211-.29775,6.69928,8.78349,6.69928,8.188,0,9.23011-4.46618,9.23011-6.997C48.08591,32.18133,46.82049,27.864,39.07854,28.58357Z" style="fill:#999"/><path d="M43.24754,28.50354s-2.97746,2.56125-3.57295,5.3154-.49443,3.52683,2.67971,5.35942c.51972.30006-.24726,1.23247-2.382,0s-2.60527-2.536-2.60527-5.027a5.60968,5.60968,0,0,1,1.71147-3.97976l-3.57238-2.00978S41.48308,26.73908,43.24754,28.50354Z" style="fill:#999"/></svg>