<svg id="8e7c5876-d232-4b71-8732-ec24fad54592" data-name="Слой 1" xmlns="http://www.w3.org/2000/svg" viewBox="0 0 121.01416 63.98855"><title>handcuff</title><path d="M115.0488,28.00752a20.26293,20.26293,0,0,0-14.42356-5.97386c-.6391,0-1.27283.03491-1.90163.09264L86.95669,10.35961a5.51509,5.51509,0,0,0-7.777,0l-2.56713,2.5668a6.59831,6.59831,0,0,0,.384-2.1423,6.68817,6.68817,0,0,0-6.681-6.681,6.59967,6.59967,0,0,0-3.18564.84475,6.659,6.659,0,0,0-12.98156.49062,6.61987,6.61987,0,0,0-3.96706-1.33537,6.67284,6.67284,0,0,0-4.7628,11.35473L41.66175,11.701a5.51564,5.51564,0,0,0-7.77748,0L22.28249,23.30268A20.397,20.397,0,1,0,40.68744,41.70427l11.6-11.6001a5.5155,5.5155,0,0,0,0-7.77737l-6.77855-6.77889a6.66385,6.66385,0,0,0,11.22941-3.52052,6.50165,6.50165,0,0,0,7.15136.48973,6.675,6.675,0,0,0,6.42589,4.94976,6.59472,6.59472,0,0,0,2.14017-.38355l-3.90217,3.90205a5.5155,5.5155,0,0,0,0,7.77737L80.32672,40.53583A20.39335,20.39335,0,1,0,115.0488,28.00752ZM30.92419,54.13534a14.89912,14.89912,0,1,1-4.6715-24.21914c2.483,2.48333,5.324,5.324,7.82224,7.82257A14.91345,14.91345,0,0,1,30.92419,54.13534ZM50.18126,13.80057a3.01558,3.01558,0,1,1,3.01647-3.01647A3.01861,3.01861,0,0,1,50.18126,13.80057ZM60.704,9.69567A3.01468,3.01468,0,1,1,63.72047,6.681,3.01708,3.01708,0,0,1,60.704,9.69567Zm9.61153,4.10491a3.01558,3.01558,0,1,1,3.01468-3.01647A3.02014,3.02014,0,0,1,70.31553,13.80057Zm40.845,39.16578A14.89022,14.89022,0,0,1,87.2373,35.92587c2.33262-2.33251,4.70641-4.7063,6.89313-6.8929A14.89307,14.89307,0,0,1,111.1605,52.96635Zm-29.35-27.50621a2.27247,2.27247,0,1,1,2.27141-2.27352A2.27721,2.27721,0,0,1,81.8105,25.46014Zm-42.73237,0a2.27247,2.27247,0,1,1,2.27141-2.27352A2.27721,2.27721,0,0,1,39.07812,25.46014Z" transform="translate(0)" style="fill:#999"/></svg>