<svg id="6de644b6-0847-421e-b294-7a219fbd9a47" data-name="Слой 1" xmlns="http://www.w3.org/2000/svg" viewBox="0 0 235.41 259.69"><title>mafia-role</title><circle cx="108.58" cy="131.73" r="105.58" style="fill:#991c00;stroke:#fff;stroke-miterlimit:10;stroke-width:6px"/><rect x="88.96" y="41.87" width="52.13" height="103.78" style="fill:#fff;stroke:#000;stroke-miterlimit:10;stroke-width:5.23235464096069px"/><polygon points="141.13 147.79 141.13 105.86 102.44 105.86 102.44 122.68 141.13 147.79" style="fill:#fff;stroke:#000;stroke-miterlimit:10;stroke-width:5.23235464096069px"/><rect x="89" y="123.88" width="52.13" height="88.06" style="stroke:#000;stroke-miterlimit:10;stroke-width:5.23235464096069px"/><path d="M89,41.89h52.13V14.39C141.13.87,134.08,0,128,0c-7.15,0-6.83,5.39-12.93,5.38C110,5.38,107.61,0,102.76,0,96,0,89,.44,89,17.68Z"/><ellipse cx="115.07" cy="39.21" rx="52.4" ry="18.27"/><ellipse cx="141.13" cy="68.86" rx="9.1" ry="14.87"/><ellipse cx="115.07" cy="71.75" rx="9.1" ry="14.87"/><line x1="128.23" y1="107.05" x2="128.23" y2="123.88" style="fill:#fff;stroke:#000;stroke-miterlimit:10;stroke-width:5.23235464096069px"/><line x1="115.11" y1="107.05" x2="115.11" y2="123.88" style="fill:#fff;stroke:#000;stroke-miterlimit:10;stroke-width:5.23235464096069px"/><line x1="141.13" y1="171.7" x2="141.13" y2="253.89" style="fill:#fff;stroke:#000;stroke-miterlimit:10;stroke-width:5.23235464096069px"/><line x1="89" y1="171.7" x2="89" y2="253.89" style="fill:#fff;stroke:#000;stroke-miterlimit:10;stroke-width:5.23235464096069px"/><polyline points="89 123.88 66.11 132.68 52.49 158.95" style="fill:none;stroke:#000;stroke-linecap:round;stroke-linejoin:round;stroke-width:5.23235464096069px"/><line x1="132.99" y1="132.68" x2="190.58" y2="113.54" style="fill:#fff;stroke:#000;stroke-linecap:round;stroke-linejoin:round;stroke-width:5.23235464096069px"/><path d="M86.22,253.89c0,3,4.8,5.51,10.72,5.51s10.72,2.19,10.72-5.51c0-3-4.78-.5-10.72-5.51C86.22,239.33,86.22,250.85,86.22,253.89Z"/><path d="M139.51,253.89c0,3,4.8,5.51,10.72,5.51S161,261.59,161,253.89c0-3-4.78-.5-10.72-5.51C139.51,239.33,139.51,250.85,139.51,253.89Z"/><circle cx="196.89" cy="113.54" r="9.08"/><circle cx="52.49" cy="158.95" r="6"/><polygon points="208.15 108.92 208.15 101.45 195.12 103.09 195.12 110.56 208.15 108.92"/><line x1="195.41" y1="101.45" x2="232.8" y2="98.22" style="fill:none;stroke:#000;stroke-linecap:round;stroke-linejoin:round;stroke-width:5.23235464096069px"/><line x1="191.43" y1="125.17" x2="196.26" y2="104" style="fill:none;stroke:#000;stroke-linecap:round;stroke-linejoin:round;stroke-width:10px"/><polygon points="221.16 111.16 220.9 98.22 196.9 99.86 197.15 112.8 221.16 111.16"/><line x1="194.84" y1="99.83" x2="191.98" y2="97.03" style="fill:none;stroke:#000;stroke-linecap:round;stroke-linejoin:round;stroke-width:5.23235464096069px"/><line x1="231.35" y1="98.3" x2="231.42" y2="93.76" style="fill:none;stroke:#000;stroke-linecap:round;stroke-linejoin:round;stroke-width:5.23235464096069px"/></svg>