<svg id="0b280a33-dfd5-4787-8b8e-bbe862454f7a" data-name="Слой 1" xmlns="http://www.w3.org/2000/svg" viewBox="0 0 221.70263 243.52762"><title>mafia-role-0</title><circle cx="108.84426" cy="114.4705" r="105.84426" style="fill:#991c00;stroke:#fff;stroke-miterlimit:10;stroke-width:6px"/><path d="M65.18163,29.5636V44.5249a9.81207,9.81207,0,0,0,0,19.62415v57.96887h52.25879V29.5636Z" style="fill:#fff"/><path d="M65.18163,29.5636V44.5249a9.81207,9.81207,0,0,0,0,19.62415v57.96887h52.25879V29.5636Z" style="fill:none;stroke:#000;stroke-miterlimit:10;stroke-width:6px"/><polyline points="109.282 115.423 137.317 144.971 181.07 138.157" style="fill:none;stroke:#000;stroke-linecap:round;stroke-linejoin:round;stroke-width:6px"/><path d="M78.647,93.13847h39.143v13.40406c-5,0-15.60149.28574-19.56789.23508C88.52266,106.65373,78.647,102.13847,78.647,93.13847Z" style="fill:#fff;stroke:#000;stroke-miterlimit:10;stroke-width:6px"/><rect x="63.79008" y="108.13847" width="53" height="82" style="fill:#858485;stroke:#000;stroke-miterlimit:10;stroke-width:6px"/><circle cx="181.07028" cy="138.15755" r="6.01947"/><line x1="116.79008" y1="190.13847" x2="116.79008" y2="237.13847" style="fill:#fff;stroke:#000;stroke-linecap:round;stroke-miterlimit:10;stroke-width:6px"/><line x1="63.79008" y1="190.13847" x2="63.79008" y2="237.13847" style="fill:#fff;stroke:#000;stroke-linecap:round;stroke-miterlimit:10;stroke-width:6px"/><polyline points="65.182 106.596 37.18 128.137 22.556 164.952" style="fill:none;stroke:#000;stroke-linecap:round;stroke-linejoin:round;stroke-width:6px"/><path d="M62.38882,236.92939c0,3.05026,4.81263,5.523,10.74931,5.523s10.74931,2.19258,10.74931-5.523c0-3.05025-4.79684-.49663-10.74931-5.523C62.38882,222.32955,62.38882,233.87914,62.38882,236.92939Z"/><path d="M114.81343,236.92939c0,3.05026,4.81263,5.523,10.74931,5.523s10.74931,2.19258,10.74931-5.523c0-3.05025-4.79684-.49663-10.74931-5.523C114.81343,222.32955,114.81343,233.87914,114.81343,236.92939Z"/><circle cx="22.55561" cy="164.95161" r="6.01947"/><circle cx="87.3009" cy="54.33699" r="9.8121" style="fill:#fff;stroke:#000;stroke-miterlimit:10;stroke-width:6px"/><circle cx="117.44027" cy="54.33699" r="9.8121" style="fill:#fff;stroke:#000;stroke-miterlimit:10;stroke-width:6px"/><path d="M126.33951,29.56363c0,10.30932-16.09146,18.66667-35.94128,18.66667S54.45694,39.87294,54.45694,29.56363,70.5484,3,90.39823,3,126.33951,19.25431,126.33951,29.56363Z" style="fill:#858485;stroke:#000;stroke-miterlimit:10;stroke-width:6px"/><line x1="93.31108" y1="92.66667" x2="93.31108" y2="106.54171" style="fill:#858485;stroke:#000;stroke-miterlimit:10;stroke-width:6px"/><line x1="107.62817" y1="92.66667" x2="107.62817" y2="106.54171" style="fill:#858485;stroke:#000;stroke-miterlimit:10;stroke-width:6px"/><circle cx="180.11058" cy="208.0846" r="22.31694" style="fill:#fff;stroke:#000;stroke-miterlimit:10;stroke-width:6px"/><path d="M210.56542,185.82251a8.14886,8.14886,0,0,0-1.79.2038,10.64958,10.64958,0,1,0-18.60059,10.32947,9.652,9.652,0,1,0,17.62842,5.43433c0-.063-.0083-.124-.00928-.18677a8.13429,8.13429,0,1,0,2.77148-15.78082Z" style="fill:#fff"/><path d="M210.56542,185.82251a8.14886,8.14886,0,0,0-1.79.2038,10.64958,10.64958,0,1,0-18.60059,10.32947,9.652,9.652,0,1,0,17.62842,5.43433c0-.063-.0083-.124-.00928-.18677a8.13429,8.13429,0,1,0,2.77148-15.78082Z" style="fill:none;stroke:#000;stroke-miterlimit:10;stroke-width:6px"/><line x1="150.24903" y1="191.50754" x2="160.49396" y2="197.43522" style="fill:#fff;stroke:#000;stroke-miterlimit:10;stroke-width:6px"/><circle cx="150.24903" cy="191.50754" r="6.51644" style="fill:#fff;stroke:#000;stroke-miterlimit:10;stroke-width:6px"/><path d="M167.18052,226.26841c-1.85486,1.85486-6.11108,14.2592-6.11108,14.2592" style="fill:#fff;stroke:#000;stroke-linecap:round;stroke-linejoin:round;stroke-width:6px"/><path d="M193.19967,226.26841c-1.85486,1.85486-6.11108,14.2592-6.11108,14.2592" style="fill:#fff;stroke:#000;stroke-linecap:round;stroke-linejoin:round;stroke-width:6px"/><path d="M181.07028,138.15755s-3.78844,28.17579,7.987,49.48144" style="fill:none;stroke:#000;stroke-linecap:round;stroke-linejoin:round;stroke-width:6px"/></svg>